<?xml version="1.0" encoding="UTF-8"?>
<svg id="uuid-01ea9147-b3e4-438e-a26c-d97980fe3c0f" data-name="Layer 1" xmlns="http://www.w3.org/2000/svg" width="595.276" height="407.214" viewBox="0 0 595.276 407.214">
  <defs>
    <style>
      .uuid-11b12cf5-4f26-4291-83cc-1fe67ee6faff {
        fill: #dbe8f5;
      }

      .uuid-f41a8351-fe00-462e-aa71-f8fc9778311e {
        fill: #fff;
        stroke: #06c;
        stroke-miterlimit: 10;
      }

      .uuid-be86fd87-53b7-48f1-b40d-45431bd35e8c {
        fill: none;
        stroke: #b4b4b4;
        stroke-dasharray: 0 0 4 4;
        stroke-linecap: round;
        stroke-linejoin: round;
      }
    </style>
  </defs>
  <rect id="uuid-28a09fb3-ecdb-4ed5-b4f6-d936eb743c55" data-name="rect14" class="uuid-11b12cf5-4f26-4291-83cc-1fe67ee6faff" x="20.012" y="20.632" width="184.251" height="364.248"/>
  <rect id="uuid-fcefc194-d9b1-4109-ad10-57dda8e147a8" data-name="rect16" class="uuid-11b12cf5-4f26-4291-83cc-1fe67ee6faff" x="391.012" y="20.632" width="184.251" height="364.248"/>
  <rect id="uuid-660d593e-9269-4404-81a7-416c5d134111" data-name="rect18" class="uuid-f41a8351-fe00-462e-aa71-f8fc9778311e" x="32.374" y="65.198" width="159.529" height="125.84"/>
  <rect id="uuid-bfdabdb1-8fbd-4cbb-9c81-548fcc67a434" data-name="rect20" class="uuid-f41a8351-fe00-462e-aa71-f8fc9778311e" x="32.374" y="290.399" width="159.529" height="80.8"/>
  <rect id="uuid-8f92657c-0d51-44ef-9118-5cc3f21dddb3" data-name="rect22" class="uuid-f41a8351-fe00-462e-aa71-f8fc9778311e" x="403.374" y="65.198" width="159.528" height="35.76"/>
  <rect id="uuid-56e25d10-0b7e-414e-b124-b0aca74519a3" data-name="rect24" class="uuid-f41a8351-fe00-462e-aa71-f8fc9778311e" x="403.374" y="110.238" width="159.528" height="35.76"/>
  <rect id="uuid-3d2efd49-f4ff-4652-86de-ffb1d6b753b5" data-name="rect26" class="uuid-f41a8351-fe00-462e-aa71-f8fc9778311e" x="403.374" y="155.278" width="159.528" height="35.76"/>
  <rect id="uuid-9f7c3805-7cda-4146-a944-1f21cf4e80a8" data-name="rect28" class="uuid-f41a8351-fe00-462e-aa71-f8fc9778311e" x="403.374" y="200.318" width="159.528" height="35.76"/>
  <rect id="uuid-a91c7c08-4cfb-4e0e-9ee0-15ce4245477c" data-name="rect30" class="uuid-f41a8351-fe00-462e-aa71-f8fc9778311e" x="403.374" y="245.358" width="159.528" height="35.76"/>
  <rect id="uuid-210a6597-84f9-4365-a986-eb8266f97579" data-name="rect32" class="uuid-f41a8351-fe00-462e-aa71-f8fc9778311e" x="32.374" y="200.318" width="159.528" height="35.76"/>
  <rect id="uuid-b407fe6f-c9a9-4c00-95c8-9473711254c3" data-name="rect34" class="uuid-f41a8351-fe00-462e-aa71-f8fc9778311e" x="32.374" y="245.358" width="159.528" height="35.76"/>
  <rect id="uuid-16fa4400-e564-45ac-b3b9-1bba47c79270" data-name="rect36" class="uuid-f41a8351-fe00-462e-aa71-f8fc9778311e" x="403.374" y="290.399" width="159.528" height="35.76"/>
  <rect id="uuid-859fd4f7-fd67-40f2-889a-7664050b0710" data-name="rect38" class="uuid-f41a8351-fe00-462e-aa71-f8fc9778311e" x="403.374" y="335.439" width="159.528" height="35.76"/>
  <line id="uuid-47b2205b-b2c4-46f6-acd3-21ec8166b649" data-name="line40" class="uuid-be86fd87-53b7-48f1-b40d-45431bd35e8c" x1="32.374" y1="195.705" x2="562.902" y2="195.705"/>
  <line id="uuid-0fe63e0d-58da-4aed-944d-72589a7587d8" data-name="line42" class="uuid-be86fd87-53b7-48f1-b40d-45431bd35e8c" x1="32.374" y1="60.532" x2="562.902" y2="60.532"/>
  <line id="uuid-6b94795f-09cb-4a4a-8e15-2ef7173aad42" data-name="line44" class="uuid-be86fd87-53b7-48f1-b40d-45431bd35e8c" x1="32.374" y1="285.759" x2="562.902" y2="285.759"/>
  <line id="uuid-aa1375cf-a38f-49d8-965f-8b4b5f1342d6" data-name="line46" class="uuid-be86fd87-53b7-48f1-b40d-45431bd35e8c" x1="32.374" y1="375.839" x2="562.902" y2="375.839"/>
  <line id="uuid-a90aaf89-46fa-4fd3-bf64-871c97f13bb4" data-name="line48" class="uuid-be86fd87-53b7-48f1-b40d-45431bd35e8c" x1="32.374" y1="240.719" x2="562.902" y2="240.719"/>
  <g>
    <path d="M459.648,304.038h3.07c2.423,0,4.21,1.835,4.21,4.21,0,2.362-1.787,4.186-4.21,4.186h-3.07v-8.396Zm1.439,1.248v5.9h1.667c1.511,0,2.687-1.271,2.687-2.938s-1.176-2.962-2.687-2.962h-1.667Z"/>
    <path d="M467.964,310.707c0-1.08,.876-1.764,2.291-1.764,.563,0,1.079,.12,1.619,.372v-.659c0-.792-.456-1.199-1.379-1.199-.504,0-1.056,.144-1.751,.467l-.48-.983c.9-.419,1.691-.611,2.495-.611,1.56,0,2.459,.792,2.459,2.183v3.922h-1.344v-.611c-.54,.491-1.104,.707-1.787,.707-1.259,0-2.123-.743-2.123-1.822Zm2.495,.875c.54,0,1.008-.155,1.415-.491v-.983c-.432-.204-.863-.288-1.392-.288-.768,0-1.247,.336-1.247,.863,0,.552,.479,.899,1.224,.899Z"/>
    <path d="M475.428,307.505h-1.212v-1.08h1.212v-1.654l1.355-.288v1.942h1.679v1.08h-1.679v3.046c0,.588,.228,.815,.839,.815,.276,0,.456-.036,.815-.144v1.14c-.348,.107-.803,.167-1.163,.167-1.211,0-1.847-.575-1.847-1.679v-3.346Z"/>
    <path d="M479.352,310.707c0-1.08,.876-1.764,2.291-1.764,.563,0,1.079,.12,1.619,.372v-.659c0-.792-.456-1.199-1.379-1.199-.504,0-1.056,.144-1.751,.467l-.48-.983c.9-.419,1.691-.611,2.495-.611,1.56,0,2.459,.792,2.459,2.183v3.922h-1.344v-.611c-.54,.491-1.104,.707-1.787,.707-1.259,0-2.123-.743-2.123-1.822Zm2.495,.875c.54,0,1.008-.155,1.415-.491v-.983c-.432-.204-.863-.288-1.392-.288-.768,0-1.247,.336-1.247,.863,0,.552,.479,.899,1.224,.899Z"/>
    <path d="M490.307,312.434h-1.355v-8.575l1.355-.228v8.803Z"/>
    <path d="M491.809,304.374c0-.455,.384-.839,.839-.839,.468,0,.852,.384,.852,.839,0,.468-.372,.828-.852,.828-.468,0-.839-.36-.839-.828Zm1.522,8.06h-1.355v-6.009h1.355v6.009Z"/>
    <path d="M495,306.425h1.355v.983c.455-.707,1.104-1.079,1.906-1.079,1.224,0,2.075,.888,2.075,2.146v3.958h-1.355v-3.574c0-.875-.516-1.438-1.319-1.438-.539,0-.983,.252-1.307,.72v4.293h-1.355v-6.009Z"/>
    <path d="M501.983,303.858l1.355-.228v5.361l2.495-2.567h1.547l-2.746,2.783,2.914,3.226h-1.739l-2.471-2.771v2.771h-1.355v-8.575Z"/>
  </g>
  <g>
    <path d="M457.714,45.096c-2.435,0-4.342-1.907-4.342-4.33s1.907-4.33,4.342-4.33,4.329,1.907,4.329,4.33-1.895,4.33-4.329,4.33Zm-.013-6.824c-1.259,0-2.206,1.067-2.206,2.495s.947,2.495,2.206,2.495,2.207-1.067,2.207-2.495-.947-2.495-2.207-2.495Z"/>
    <path d="M463.871,42.29c1.164,.815,1.896,1.115,2.723,1.115,.889,0,1.428-.36,1.428-.875,0-.492-.288-.72-1.104-.875l-1.787-.312c-1.331-.252-2.062-1.067-2.062-2.243,0-1.631,1.247-2.65,3.334-2.65,1.295,0,2.578,.419,3.441,1.103l-1.043,1.5c-.815-.624-1.619-.924-2.506-.924-.816,0-1.283,.336-1.283,.792,0,.42,.275,.648,.947,.756l1.679,.288c1.571,.276,2.398,1.092,2.398,2.375,0,1.631-1.392,2.747-3.586,2.747-1.331,0-2.519-.444-3.634-1.271l1.055-1.523Z"/>
    <path d="M471.264,36.569h2.062v8.396h-2.062v-8.396Z"/>
    <path d="M477.479,38.776h1.943v.983c.456-.708,1.079-1.08,1.835-1.08,.803,0,1.439,.444,1.738,1.151,.48-.744,1.176-1.151,2.027-1.151,1.14,0,1.943,.899,1.943,2.171v4.114h-1.943v-3.73c0-.624-.371-1.031-.924-1.031-.359,0-.646,.144-.898,.479v4.282h-1.943v-3.73c0-.624-.372-1.031-.924-1.031-.359,0-.66,.156-.911,.479v4.282h-1.943v-6.188Z"/>
    <path d="M491.387,38.68c1.846,0,3.238,1.379,3.238,3.202s-1.404,3.203-3.238,3.203-3.227-1.392-3.227-3.203c0-1.823,1.391-3.202,3.227-3.202Zm1.343,3.202c0-.923-.563-1.583-1.343-1.583s-1.332,.66-1.332,1.583c0,.912,.552,1.56,1.332,1.56,.791,0,1.343-.648,1.343-1.56Z"/>
    <path d="M500.205,44.161c-.408,.516-1.092,.84-1.822,.84-1.523,0-2.734-1.403-2.734-3.143s1.271-3.118,2.877-3.118c.648,0,1.236,.264,1.656,.744v-3.094l1.942-.3v8.875h-1.919v-.804Zm-1.176-.768c.469,0,.852-.168,1.152-.492v-2.087c-.301-.312-.708-.479-1.152-.479-.852,0-1.475,.647-1.475,1.535,0,.875,.636,1.523,1.475,1.523Z"/>
    <path d="M506.625,45.084c-1.822,0-3.262-1.403-3.262-3.203,0-1.823,1.344-3.214,3.119-3.214,1.787,0,3.046,1.355,3.046,3.286v.419h-4.258c.18,.696,.743,1.164,1.451,1.164,.516,0,.947-.18,1.224-.516l1.283,1.067c-.804,.708-1.56,.996-2.604,.996Zm-1.354-3.814h2.458c-.155-.672-.635-1.091-1.259-1.091-.612,0-1.044,.408-1.199,1.091Z"/>
    <path d="M512.687,44.964h-1.943v-8.575l1.943-.3v8.875Z"/>
  </g>
  <g>
    <path d="M71.728,36.569h7.472v1.763h-2.698v6.632h-2.063v-6.632h-2.71v-1.763Z"/>
    <path d="M85.992,42.194l1.355,1.283c-.744,.972-2.051,1.607-3.346,1.607-2.507,0-4.426-1.883-4.426-4.318,0-2.447,1.931-4.33,4.426-4.33,1.343,0,2.674,.636,3.406,1.631l-1.392,1.319c-.551-.743-1.223-1.115-2.015-1.115-1.307,0-2.291,1.067-2.291,2.495,0,1.416,1.02,2.471,2.363,2.471,.756,0,1.392-.348,1.919-1.043Z"/>
    <path d="M88.611,36.569h4.102c1.787,0,2.962,1.164,2.962,2.771,0,1.523-1.175,2.699-2.962,2.699h-2.039v2.926h-2.063v-8.396Zm2.063,1.703v2.123h1.667c.839,0,1.247-.456,1.247-1.067,0-.6-.408-1.056-1.235-1.056h-1.679Z"/>
    <path d="M99.062,36.569h1.847l-4.81,10.926h-1.859l4.821-10.926Z"/>
    <path d="M102.1,36.569h2.063v8.396h-2.063v-8.396Z"/>
    <path d="M105.916,36.569h4.102c1.787,0,2.962,1.164,2.962,2.771,0,1.523-1.175,2.699-2.962,2.699h-2.039v2.926h-2.063v-8.396Zm2.063,1.703v2.123h1.667c.839,0,1.247-.456,1.247-1.067,0-.6-.408-1.056-1.235-1.056h-1.679Z"/>
    <path d="M116.835,38.776h1.943v.983c.456-.708,1.079-1.08,1.835-1.08,.803,0,1.439,.444,1.739,1.151,.48-.744,1.175-1.151,2.027-1.151,1.14,0,1.943,.899,1.943,2.171v4.114h-1.943v-3.73c0-.624-.372-1.031-.923-1.031-.36,0-.647,.144-.899,.479v4.282h-1.943v-3.73c0-.624-.372-1.031-.924-1.031-.36,0-.66,.156-.911,.479v4.282h-1.943v-6.188Z"/>
    <path d="M130.742,38.68c1.847,0,3.238,1.379,3.238,3.202s-1.403,3.203-3.238,3.203-3.226-1.392-3.226-3.203c0-1.823,1.391-3.202,3.226-3.202Zm1.343,3.202c0-.923-.564-1.583-1.343-1.583s-1.332,.66-1.332,1.583c0,.912,.552,1.56,1.332,1.56,.792,0,1.343-.648,1.343-1.56Z"/>
    <path d="M139.561,44.161c-.408,.516-1.091,.84-1.823,.84-1.523,0-2.735-1.403-2.735-3.143s1.271-3.118,2.879-3.118c.647,0,1.235,.264,1.655,.744v-3.094l1.943-.3v8.875h-1.919v-.804Zm-1.175-.768c.468,0,.852-.168,1.151-.492v-2.087c-.3-.312-.708-.479-1.151-.479-.852,0-1.475,.647-1.475,1.535,0,.875,.636,1.523,1.475,1.523Z"/>
    <path d="M145.981,45.084c-1.823,0-3.263-1.403-3.263-3.203,0-1.823,1.344-3.214,3.119-3.214,1.787,0,3.046,1.355,3.046,3.286v.419h-4.258c.18,.696,.744,1.164,1.451,1.164,.516,0,.947-.18,1.223-.516l1.284,1.067c-.804,.708-1.56,.996-2.603,.996Zm-1.355-3.814h2.458c-.156-.672-.636-1.091-1.259-1.091-.611,0-1.043,.408-1.199,1.091Z"/>
    <path d="M152.042,44.964h-1.943v-8.575l1.943-.3v8.875Z"/>
  </g>
  <g>
    <path d="M101.146,326.559h1.439v7.148h4.474v1.247h-5.913v-8.396Z"/>
    <path d="M108.311,326.895c0-.455,.384-.839,.839-.839,.468,0,.852,.384,.852,.839,0,.468-.372,.828-.852,.828-.468,0-.839-.36-.839-.828Zm1.523,8.06h-1.355v-6.009h1.355v6.009Z"/>
    <path d="M111.502,328.945h1.355v.983c.456-.707,1.104-1.079,1.907-1.079,1.224,0,2.075,.888,2.075,2.146v3.958h-1.355v-3.574c0-.875-.516-1.438-1.319-1.438-.54,0-.983,.252-1.307,.72v4.293h-1.355v-6.009Z"/>
    <path d="M118.486,326.379l1.355-.228v5.361l2.495-2.567h1.547l-2.746,2.783,2.914,3.226h-1.739l-2.471-2.771v2.771h-1.355v-8.575Z"/>
  </g>
  <g>
    <path d="M90.448,258.998h1.439v8.396h-1.439v-8.396Z"/>
    <path d="M93.676,261.385h1.355v.983c.456-.708,1.104-1.079,1.907-1.079,1.224,0,2.075,.887,2.075,2.146v3.958h-1.355v-3.574c0-.876-.516-1.439-1.319-1.439-.54,0-.983,.252-1.307,.72v4.294h-1.355v-6.009Z"/>
    <path d="M101.224,262.464h-1.211v-1.079h1.211v-1.655l1.355-.288v1.943h1.679v1.079h-1.679v3.047c0,.587,.228,.815,.839,.815,.276,0,.456-.036,.815-.145v1.14c-.348,.108-.803,.168-1.163,.168-1.211,0-1.847-.575-1.847-1.679v-3.347Z"/>
    <path d="M108.146,267.514c-1.715,0-3.059-1.367-3.059-3.119,0-1.763,1.259-3.105,2.927-3.105,1.643,0,2.842,1.307,2.842,3.094v.336h-4.438c.132,.947,.875,1.644,1.799,1.644,.564,0,1.091-.204,1.427-.564l.888,.828c-.732,.611-1.451,.888-2.387,.888Zm-1.703-3.622h3.13c-.156-.888-.768-1.5-1.571-1.5s-1.403,.588-1.559,1.5Z"/>
    <path d="M112.24,261.385h1.355v1.308c.324-.924,.899-1.416,1.655-1.416,.228,.013,.384,.036,.587,.12v1.188c-.216-.096-.492-.144-.744-.144-.647,0-1.199,.371-1.499,.995v3.958h-1.355v-6.009Z"/>
    <path d="M116.956,261.385h1.355v.983c.456-.708,1.104-1.079,1.907-1.079,1.224,0,2.075,.887,2.075,2.146v3.958h-1.355v-3.574c0-.876-.516-1.439-1.319-1.439-.54,0-.983,.252-1.307,.72v4.294h-1.355v-6.009Z"/>
    <path d="M126.722,267.514c-1.715,0-3.059-1.367-3.059-3.119,0-1.763,1.26-3.105,2.927-3.105,1.643,0,2.842,1.307,2.842,3.094v.336h-4.438c.132,.947,.875,1.644,1.799,1.644,.564,0,1.091-.204,1.427-.564l.888,.828c-.731,.611-1.451,.888-2.387,.888Zm-1.703-3.622h3.13c-.156-.888-.768-1.5-1.571-1.5s-1.403,.588-1.559,1.5Z"/>
    <path d="M131.379,262.464h-1.211v-1.079h1.211v-1.655l1.355-.288v1.943h1.679v1.079h-1.679v3.047c0,.587,.228,.815,.839,.815,.276,0,.456-.036,.815-.145v1.14c-.348,.108-.803,.168-1.163,.168-1.211,0-1.847-.575-1.847-1.679v-3.347Z"/>
  </g>
  <g>
    <path d="M84.767,212.616h7.052v1.247h-2.794v7.148h-1.439v-7.148h-2.818v-1.247Z"/>
    <path d="M92.507,215.003h1.355v1.308c.324-.924,.899-1.416,1.655-1.416,.228,.013,.384,.036,.587,.12v1.188c-.216-.096-.492-.144-.744-.144-.647,0-1.199,.371-1.499,.995v3.958h-1.355v-6.009Z"/>
    <path d="M96.719,219.284c0-1.079,.875-1.763,2.291-1.763,.563,0,1.079,.12,1.619,.372v-.66c0-.791-.456-1.199-1.379-1.199-.504,0-1.055,.144-1.751,.468l-.48-.983c.9-.42,1.691-.611,2.495-.611,1.559,0,2.459,.791,2.459,2.183v3.922h-1.343v-.612c-.54,.492-1.104,.708-1.787,.708-1.259,0-2.123-.743-2.123-1.823Zm2.495,.876c.54,0,1.008-.156,1.416-.492v-.983c-.432-.204-.864-.288-1.392-.288-.768,0-1.247,.336-1.247,.864,0,.552,.479,.899,1.223,.899Z"/>
    <path d="M103.619,215.003h1.355v.983c.456-.708,1.104-1.079,1.907-1.079,1.224,0,2.075,.887,2.075,2.146v3.958h-1.355v-3.574c0-.876-.516-1.439-1.319-1.439-.54,0-.983,.252-1.307,.72v4.294h-1.355v-6.009Z"/>
    <path d="M110.698,219.404c.779,.492,1.319,.684,1.931,.684,.72,0,1.211-.323,1.211-.804,0-.371-.252-.575-.828-.684l-1.067-.18c-1.163-.216-1.739-.756-1.739-1.655,0-1.127,.923-1.858,2.327-1.858,.839,0,1.595,.228,2.363,.719l-.636,.888c-.624-.396-1.199-.575-1.811-.575-.624,0-1.031,.264-1.031,.707,0,.384,.216,.552,.852,.66l1.055,.191c1.199,.229,1.775,.78,1.775,1.68,0,1.104-1.055,1.955-2.446,1.955-1.043,0-1.955-.288-2.591-.816l.636-.911Z"/>
    <path d="M116.35,215.003h1.332v.863c.42-.575,1.091-.911,1.871-.911,1.523,0,2.722,1.355,2.722,3.058,0,1.716-1.235,3.059-2.818,3.059-.708,0-1.319-.275-1.751-.779v3.262h-1.355v-8.551Zm1.355,1.763v2.507c.348,.42,.863,.659,1.439,.659,1.032,0,1.787-.815,1.787-1.919,0-1.091-.768-1.919-1.787-1.919-.6,0-1.079,.229-1.439,.672Z"/>
    <path d="M126.464,214.907c1.727,0,3.022,1.343,3.022,3.105,0,1.775-1.307,3.119-3.022,3.119s-3.022-1.355-3.022-3.119,1.308-3.105,3.022-3.105Zm1.679,3.118c0-1.14-.708-1.955-1.679-1.955-.983,0-1.679,.815-1.679,1.955,0,1.127,.696,1.931,1.679,1.931s1.679-.815,1.679-1.931Z"/>
    <path d="M130.894,215.003h1.355v1.308c.324-.924,.899-1.416,1.655-1.416,.228,.013,.384,.036,.587,.12v1.188c-.216-.096-.492-.144-.744-.144-.647,0-1.199,.371-1.499,.995v3.958h-1.355v-6.009Z"/>
    <path d="M136.425,216.082h-1.211v-1.079h1.211v-1.655l1.355-.288v1.943h1.679v1.079h-1.679v3.047c0,.587,.228,.815,.839,.815,.276,0,.456-.036,.815-.145v1.14c-.348,.108-.803,.168-1.163,.168-1.211,0-1.847-.575-1.847-1.679v-3.347Z"/>
  </g>
  <g>
    <path d="M83.547,123.878h1.667l3.25,8.396h-1.547l-.852-2.351h-3.454l-.863,2.351h-1.5l3.298-8.396Zm2.099,4.917l-1.295-3.574-1.319,3.574h2.615Z"/>
    <path d="M89.38,126.265h1.332v.864c.42-.576,1.091-.912,1.871-.912,1.523,0,2.722,1.355,2.722,3.058,0,1.715-1.235,3.059-2.818,3.059-.708,0-1.319-.276-1.751-.78v3.262h-1.355v-8.551Zm1.355,1.763v2.506c.348,.42,.863,.66,1.439,.66,1.032,0,1.787-.815,1.787-1.919,0-1.091-.768-1.919-1.787-1.919-.6,0-1.079,.228-1.439,.672Z"/>
    <path d="M96.712,126.265h1.332v.864c.42-.576,1.091-.912,1.871-.912,1.523,0,2.722,1.355,2.722,3.058,0,1.715-1.235,3.059-2.818,3.059-.708,0-1.319-.276-1.751-.78v3.262h-1.355v-8.551Zm1.355,1.763v2.506c.348,.42,.863,.66,1.439,.66,1.032,0,1.787-.815,1.787-1.919,0-1.091-.768-1.919-1.787-1.919-.6,0-1.079,.228-1.439,.672Z"/>
    <path d="M105.4,132.273h-1.355v-8.575l1.355-.228v8.803Z"/>
    <path d="M106.9,124.214c0-.456,.384-.839,.84-.839,.468,0,.852,.384,.852,.839,0,.468-.372,.828-.852,.828-.468,0-.84-.36-.84-.828Zm1.523,8.06h-1.355v-6.009h1.355v6.009Z"/>
    <path d="M114.386,130.534l.815,.816c-.563,.647-1.427,1.043-2.351,1.043-1.703,0-3.035-1.367-3.035-3.119,0-1.739,1.319-3.094,3.035-3.094,.936,0,1.799,.36,2.398,1.008l-.839,.875c-.42-.468-.936-.708-1.511-.708-.972,0-1.727,.84-1.727,1.919,0,1.092,.755,1.919,1.763,1.919,.576,0,1.091-.228,1.451-.66Z"/>
    <path d="M116.068,130.546c0-1.08,.875-1.763,2.291-1.763,.563,0,1.079,.12,1.619,.372v-.66c0-.792-.456-1.199-1.379-1.199-.504,0-1.055,.144-1.751,.467l-.48-.983c.9-.419,1.691-.611,2.495-.611,1.559,0,2.459,.792,2.459,2.183v3.922h-1.343v-.612c-.54,.492-1.104,.708-1.787,.708-1.259,0-2.123-.743-2.123-1.823Zm2.495,.875c.54,0,1.008-.156,1.416-.492v-.983c-.432-.204-.864-.288-1.392-.288-.768,0-1.247,.336-1.247,.864,0,.552,.479,.899,1.223,.899Z"/>
    <path d="M123.532,127.344h-1.211v-1.08h1.211v-1.655l1.355-.288v1.943h1.679v1.08h-1.679v3.046c0,.587,.228,.815,.839,.815,.276,0,.456-.036,.815-.144v1.14c-.348,.108-.803,.167-1.163,.167-1.211,0-1.847-.575-1.847-1.679v-3.346Z"/>
    <path d="M127.588,124.214c0-.456,.384-.839,.84-.839,.468,0,.852,.384,.852,.839,0,.468-.372,.828-.852,.828-.468,0-.84-.36-.84-.828Zm1.523,8.06h-1.355v-6.009h1.355v6.009Z"/>
    <path d="M133.526,126.169c1.727,0,3.022,1.343,3.022,3.106,0,1.775-1.307,3.119-3.022,3.119s-3.022-1.355-3.022-3.119,1.308-3.106,3.022-3.106Zm1.679,3.118c0-1.14-.708-1.955-1.679-1.955-.983,0-1.679,.815-1.679,1.955,0,1.127,.696,1.931,1.679,1.931s1.679-.815,1.679-1.931Z"/>
    <path d="M137.956,126.265h1.355v.983c.456-.708,1.104-1.079,1.907-1.079,1.224,0,2.075,.887,2.075,2.146v3.958h-1.355v-3.574c0-.875-.516-1.439-1.319-1.439-.54,0-.983,.252-1.307,.72v4.293h-1.355v-6.009Z"/>
  </g>
  <g>
    <path d="M454.547,78.837h1.667l3.251,8.396h-1.548l-.852-2.351h-3.454l-.863,2.351h-1.499l3.298-8.396Zm2.1,4.917l-1.296-3.574-1.319,3.574h2.615Z"/>
    <path d="M460.38,81.224h1.332v.864c.42-.576,1.091-.912,1.871-.912,1.522,0,2.722,1.355,2.722,3.058,0,1.715-1.235,3.059-2.818,3.059-.707,0-1.319-.276-1.751-.78v3.262h-1.355v-8.551Zm1.355,1.763v2.506c.348,.42,.863,.66,1.439,.66,1.031,0,1.787-.815,1.787-1.919,0-1.091-.768-1.919-1.787-1.919-.6,0-1.079,.228-1.439,.672Z"/>
    <path d="M467.712,81.224h1.332v.864c.42-.576,1.091-.912,1.871-.912,1.522,0,2.722,1.355,2.722,3.058,0,1.715-1.235,3.059-2.818,3.059-.707,0-1.319-.276-1.751-.78v3.262h-1.355v-8.551Zm1.355,1.763v2.506c.348,.42,.863,.66,1.439,.66,1.031,0,1.787-.815,1.787-1.919,0-1.091-.768-1.919-1.787-1.919-.6,0-1.079,.228-1.439,.672Z"/>
    <path d="M476.399,87.233h-1.355v-8.575l1.355-.228v8.803Z"/>
    <path d="M477.9,79.173c0-.456,.384-.839,.84-.839,.468,0,.852,.384,.852,.839,0,.468-.372,.828-.852,.828-.468,0-.84-.36-.84-.828Zm1.523,8.06h-1.355v-6.009h1.355v6.009Z"/>
    <path d="M485.386,85.494l.815,.816c-.563,.647-1.427,1.043-2.351,1.043-1.703,0-3.034-1.367-3.034-3.119,0-1.739,1.319-3.094,3.034-3.094,.936,0,1.799,.36,2.398,1.008l-.839,.875c-.42-.468-.936-.708-1.512-.708-.972,0-1.727,.84-1.727,1.919,0,1.092,.755,1.919,1.763,1.919,.576,0,1.092-.228,1.451-.66Z"/>
    <path d="M487.068,85.506c0-1.08,.875-1.763,2.291-1.763,.563,0,1.079,.12,1.619,.372v-.66c0-.792-.456-1.199-1.38-1.199-.504,0-1.055,.144-1.751,.467l-.479-.983c.899-.419,1.691-.611,2.494-.611,1.56,0,2.459,.792,2.459,2.183v3.922h-1.343v-.612c-.54,.492-1.104,.708-1.787,.708-1.26,0-2.123-.743-2.123-1.823Zm2.494,.875c.54,0,1.008-.156,1.416-.492v-.983c-.433-.204-.864-.288-1.392-.288-.768,0-1.247,.336-1.247,.864,0,.552,.479,.899,1.223,.899Z"/>
    <path d="M494.531,82.304h-1.211v-1.08h1.211v-1.655l1.355-.288v1.943h1.68v1.08h-1.68v3.046c0,.587,.229,.815,.84,.815,.275,0,.456-.036,.815-.144v1.14c-.348,.108-.804,.167-1.163,.167-1.212,0-1.848-.575-1.848-1.679v-3.346Z"/>
    <path d="M498.588,79.173c0-.456,.384-.839,.84-.839,.468,0,.852,.384,.852,.839,0,.468-.372,.828-.852,.828-.468,0-.84-.36-.84-.828Zm1.523,8.06h-1.355v-6.009h1.355v6.009Z"/>
    <path d="M504.526,81.128c1.727,0,3.022,1.343,3.022,3.106,0,1.775-1.308,3.119-3.022,3.119s-3.022-1.355-3.022-3.119,1.308-3.106,3.022-3.106Zm1.679,3.118c0-1.14-.707-1.955-1.679-1.955-.983,0-1.68,.815-1.68,1.955,0,1.127,.696,1.931,1.68,1.931s1.679-.815,1.679-1.931Z"/>
    <path d="M508.955,81.224h1.355v.983c.456-.708,1.104-1.079,1.907-1.079,1.224,0,2.075,.887,2.075,2.146v3.958h-1.355v-3.574c0-.875-.516-1.439-1.319-1.439-.54,0-.983,.252-1.308,.72v4.293h-1.355v-6.009Z"/>
  </g>
  <g>
    <path d="M447.876,123.877h3.754c1.703,0,2.807,1.067,2.807,2.615,0,1.499-1.104,2.579-2.807,2.579h-2.314v3.202h-1.439v-8.396Zm1.439,1.211v2.807h2.087c1.02,0,1.583-.564,1.583-1.416,0-.827-.563-1.391-1.571-1.391h-2.099Z"/>
    <path d="M455.856,126.264h1.355v1.308c.323-.924,.899-1.416,1.655-1.416,.228,.012,.384,.036,.587,.12v1.187c-.216-.096-.491-.144-.743-.144-.647,0-1.199,.372-1.499,.995v3.958h-1.355v-6.009Z"/>
    <path d="M463.066,132.393c-1.715,0-3.059-1.367-3.059-3.119,0-1.763,1.26-3.106,2.927-3.106,1.644,0,2.843,1.307,2.843,3.094v.336h-4.438c.132,.947,.875,1.643,1.799,1.643,.563,0,1.091-.204,1.427-.564l.888,.828c-.731,.612-1.451,.888-2.387,.888Zm-1.703-3.622h3.131c-.156-.888-.768-1.5-1.571-1.5s-1.403,.588-1.56,1.5Z"/>
    <path d="M467.316,130.666c.779,.492,1.319,.684,1.931,.684,.72,0,1.211-.324,1.211-.804,0-.372-.252-.576-.827-.684l-1.067-.18c-1.163-.216-1.739-.755-1.739-1.655,0-1.127,.924-1.859,2.327-1.859,.839,0,1.595,.228,2.362,.719l-.636,.888c-.623-.396-1.199-.576-1.811-.576-.624,0-1.031,.264-1.031,.708,0,.384,.216,.552,.852,.66l1.055,.192c1.199,.228,1.775,.78,1.775,1.679,0,1.104-1.056,1.955-2.446,1.955-1.044,0-1.955-.288-2.591-.816l.636-.911Z"/>
    <path d="M475.811,132.393c-1.716,0-3.059-1.367-3.059-3.119,0-1.763,1.259-3.106,2.927-3.106,1.643,0,2.842,1.307,2.842,3.094v.336h-4.438c.132,.947,.876,1.643,1.799,1.643,.564,0,1.092-.204,1.428-.564l.888,.828c-.732,.612-1.451,.888-2.387,.888Zm-1.703-3.622h3.13c-.156-.888-.768-1.5-1.571-1.5s-1.403,.588-1.559,1.5Z"/>
    <path d="M479.903,126.264h1.355v.983c.456-.708,1.104-1.079,1.907-1.079,1.224,0,2.075,.887,2.075,2.146v3.958h-1.355v-3.574c0-.875-.516-1.439-1.319-1.439-.54,0-.983,.252-1.308,.72v4.293h-1.355v-6.009Z"/>
    <path d="M487.451,127.344h-1.211v-1.08h1.211v-1.655l1.355-.288v1.943h1.68v1.08h-1.68v3.046c0,.587,.228,.815,.84,.815,.275,0,.456-.036,.815-.144v1.14c-.348,.108-.804,.167-1.163,.167-1.212,0-1.848-.575-1.848-1.679v-3.346Z"/>
    <path d="M491.376,130.546c0-1.08,.875-1.763,2.291-1.763,.563,0,1.079,.12,1.619,.372v-.66c0-.792-.456-1.199-1.38-1.199-.504,0-1.056,.144-1.751,.467l-.479-.983c.899-.419,1.691-.611,2.494-.611,1.56,0,2.459,.792,2.459,2.183v3.922h-1.343v-.612c-.54,.492-1.104,.708-1.787,.708-1.26,0-2.123-.743-2.123-1.823Zm2.494,.875c.54,0,1.008-.156,1.416-.492v-.983c-.433-.204-.864-.288-1.392-.288-.768,0-1.247,.336-1.247,.864,0,.552,.479,.899,1.223,.899Z"/>
    <path d="M498.839,127.344h-1.211v-1.08h1.211v-1.655l1.355-.288v1.943h1.68v1.08h-1.68v3.046c0,.587,.228,.815,.84,.815,.275,0,.456-.036,.815-.144v1.14c-.348,.108-.804,.167-1.163,.167-1.212,0-1.848-.575-1.848-1.679v-3.346Z"/>
    <path d="M502.896,124.213c0-.456,.384-.839,.84-.839,.468,0,.852,.384,.852,.839,0,.468-.372,.828-.852,.828-.468,0-.84-.36-.84-.828Zm1.523,8.06h-1.355v-6.009h1.355v6.009Z"/>
    <path d="M508.834,126.168c1.727,0,3.022,1.343,3.022,3.106,0,1.775-1.308,3.119-3.022,3.119s-3.022-1.355-3.022-3.119,1.308-3.106,3.022-3.106Zm1.679,3.118c0-1.14-.707-1.955-1.679-1.955-.983,0-1.68,.815-1.68,1.955,0,1.127,.696,1.931,1.68,1.931s1.679-.815,1.679-1.931Z"/>
    <path d="M513.263,126.264h1.355v.983c.456-.708,1.104-1.079,1.907-1.079,1.224,0,2.075,.887,2.075,2.146v3.958h-1.355v-3.574c0-.875-.516-1.439-1.319-1.439-.54,0-.983,.252-1.308,.72v4.293h-1.355v-6.009Z"/>
  </g>
  <g>
    <path d="M462.492,175.023c1.079,.887,1.858,1.223,2.818,1.223,1.115,0,1.883-.563,1.883-1.331,0-.684-.408-.996-1.523-1.2l-1.547-.264c-1.451-.264-2.159-.983-2.159-2.135,0-1.511,1.212-2.519,3.095-2.519,1.259,0,2.41,.384,3.37,1.091l-.731,1.079c-.84-.647-1.751-.971-2.687-.971-1.008,0-1.667,.503-1.667,1.188,0,.6,.371,.911,1.295,1.055l1.487,.264c1.691,.288,2.482,1.032,2.482,2.303,0,1.535-1.367,2.627-3.37,2.627-1.319,0-2.458-.456-3.526-1.355l.78-1.055Z"/>
    <path d="M472.811,177.434c-1.716,0-3.059-1.367-3.059-3.119,0-1.763,1.259-3.106,2.927-3.106,1.643,0,2.842,1.307,2.842,3.094v.336h-4.438c.132,.947,.876,1.643,1.799,1.643,.564,0,1.092-.204,1.428-.564l.888,.828c-.732,.612-1.451,.888-2.387,.888Zm-1.703-3.622h3.13c-.156-.888-.768-1.5-1.571-1.5s-1.403,.588-1.559,1.5Z"/>
    <path d="M477.06,175.707c.779,.492,1.319,.684,1.931,.684,.72,0,1.212-.324,1.212-.804,0-.372-.252-.576-.828-.684l-1.067-.18c-1.163-.216-1.738-.755-1.738-1.655,0-1.127,.923-1.859,2.326-1.859,.84,0,1.596,.228,2.363,.719l-.636,.888c-.624-.396-1.199-.576-1.812-.576-.623,0-1.031,.264-1.031,.708,0,.384,.216,.552,.852,.66l1.056,.192c1.199,.228,1.774,.78,1.774,1.679,0,1.104-1.055,1.955-2.446,1.955-1.043,0-1.955-.288-2.591-.816l.636-.911Z"/>
    <path d="M482.855,175.707c.779,.492,1.319,.684,1.931,.684,.72,0,1.212-.324,1.212-.804,0-.372-.252-.576-.828-.684l-1.067-.18c-1.163-.216-1.738-.755-1.738-1.655,0-1.127,.923-1.859,2.326-1.859,.84,0,1.596,.228,2.363,.719l-.636,.888c-.624-.396-1.199-.576-1.812-.576-.623,0-1.031,.264-1.031,.708,0,.384,.216,.552,.852,.66l1.056,.192c1.199,.228,1.774,.78,1.774,1.679,0,1.104-1.055,1.955-2.446,1.955-1.043,0-1.955-.288-2.591-.816l.636-.911Z"/>
    <path d="M488.34,169.254c0-.456,.384-.839,.84-.839,.468,0,.852,.384,.852,.839,0,.468-.372,.828-.852,.828-.468,0-.84-.36-.84-.828Zm1.523,8.06h-1.355v-6.009h1.355v6.009Z"/>
    <path d="M494.278,171.209c1.727,0,3.022,1.343,3.022,3.106,0,1.775-1.308,3.119-3.022,3.119s-3.022-1.355-3.022-3.119,1.308-3.106,3.022-3.106Zm1.679,3.118c0-1.14-.707-1.955-1.679-1.955-.983,0-1.68,.815-1.68,1.955,0,1.127,.696,1.931,1.68,1.931s1.679-.815,1.679-1.931Z"/>
    <path d="M498.707,171.305h1.355v.983c.456-.708,1.104-1.079,1.907-1.079,1.224,0,2.075,.887,2.075,2.146v3.958h-1.355v-3.574c0-.875-.516-1.439-1.319-1.439-.54,0-.983,.252-1.308,.72v4.293h-1.355v-6.009Z"/>
  </g>
  <g>
    <path d="M455.767,213.957h7.053v1.248h-2.795v7.147h-1.439v-7.147h-2.818v-1.248Z"/>
    <path d="M463.507,216.344h1.355v1.308c.323-.924,.899-1.415,1.655-1.415,.228,.012,.384,.036,.587,.12v1.187c-.216-.096-.491-.144-.743-.144-.647,0-1.199,.372-1.499,.995v3.958h-1.355v-6.009Z"/>
    <path d="M467.719,220.626c0-1.08,.875-1.764,2.291-1.764,.563,0,1.079,.12,1.619,.372v-.659c0-.792-.456-1.199-1.38-1.199-.504,0-1.055,.144-1.751,.467l-.479-.983c.899-.419,1.691-.611,2.494-.611,1.56,0,2.459,.792,2.459,2.183v3.922h-1.343v-.611c-.54,.491-1.104,.707-1.787,.707-1.26,0-2.123-.743-2.123-1.822Zm2.494,.875c.54,0,1.008-.155,1.416-.491v-.983c-.433-.204-.864-.288-1.392-.288-.768,0-1.247,.336-1.247,.863,0,.552,.479,.899,1.223,.899Z"/>
    <path d="M474.618,216.344h1.355v.983c.456-.707,1.104-1.079,1.907-1.079,1.224,0,2.075,.888,2.075,2.146v3.958h-1.355v-3.574c0-.875-.516-1.438-1.319-1.438-.54,0-.983,.252-1.308,.72v4.293h-1.355v-6.009Z"/>
    <path d="M481.698,220.746c.779,.491,1.319,.684,1.931,.684,.72,0,1.211-.324,1.211-.804,0-.372-.252-.576-.827-.684l-1.067-.181c-1.163-.216-1.739-.755-1.739-1.654,0-1.128,.924-1.859,2.327-1.859,.839,0,1.595,.228,2.362,.72l-.636,.888c-.623-.396-1.199-.576-1.811-.576-.624,0-1.031,.264-1.031,.708,0,.384,.216,.552,.852,.659l1.055,.192c1.199,.228,1.775,.779,1.775,1.679,0,1.104-1.056,1.955-2.446,1.955-1.044,0-1.955-.288-2.591-.815l.636-.911Z"/>
    <path d="M487.35,216.344h1.332v.864c.42-.576,1.091-.912,1.871-.912,1.522,0,2.722,1.355,2.722,3.059,0,1.715-1.235,3.059-2.818,3.059-.707,0-1.319-.276-1.751-.78v3.263h-1.355v-8.552Zm1.355,1.764v2.506c.348,.42,.863,.66,1.439,.66,1.031,0,1.787-.815,1.787-1.919,0-1.092-.768-1.919-1.787-1.919-.6,0-1.079,.228-1.439,.672Z"/>
    <path d="M497.464,216.248c1.728,0,3.022,1.344,3.022,3.106,0,1.775-1.307,3.118-3.022,3.118s-3.022-1.355-3.022-3.118,1.308-3.106,3.022-3.106Zm1.68,3.118c0-1.14-.708-1.955-1.68-1.955-.983,0-1.679,.815-1.679,1.955,0,1.128,.695,1.931,1.679,1.931s1.68-.815,1.68-1.931Z"/>
    <path d="M501.894,216.344h1.355v1.308c.324-.924,.899-1.415,1.655-1.415,.228,.012,.384,.036,.588,.12v1.187c-.216-.096-.492-.144-.744-.144-.647,0-1.199,.372-1.499,.995v3.958h-1.355v-6.009Z"/>
    <path d="M507.425,217.424h-1.211v-1.08h1.211v-1.654l1.355-.288v1.942h1.68v1.08h-1.68v3.046c0,.588,.229,.815,.84,.815,.275,0,.456-.036,.815-.144v1.14c-.348,.107-.804,.167-1.163,.167-1.212,0-1.848-.575-1.848-1.679v-3.346Z"/>
  </g>
  <g>
    <path d="M461.537,258.998l4.378,6.093-.024-6.093h1.355v8.396h-1.283l-4.497-6.261,.023,6.261h-1.355v-8.396h1.403Z"/>
    <path d="M471.881,267.514c-1.716,0-3.059-1.367-3.059-3.119,0-1.763,1.26-3.105,2.927-3.105,1.643,0,2.842,1.307,2.842,3.094v.336h-4.438c.132,.947,.876,1.644,1.799,1.644,.564,0,1.092-.204,1.428-.564l.888,.828c-.731,.611-1.451,.888-2.387,.888Zm-1.703-3.622h3.13c-.155-.888-.768-1.5-1.571-1.5s-1.403,.588-1.559,1.5Z"/>
    <path d="M476.537,262.464h-1.211v-1.079h1.211v-1.655l1.355-.288v1.943h1.68v1.079h-1.68v3.047c0,.587,.229,.815,.84,.815,.275,0,.456-.036,.815-.145v1.14c-.348,.108-.804,.168-1.163,.168-1.212,0-1.848-.575-1.848-1.679v-3.347Z"/>
    <path d="M481.938,267.394l-1.619-6.009h1.295l1.056,4.245,1.235-4.245h1.151l1.235,4.258,1.043-4.258h1.271l-1.619,6.009h-1.308l-1.211-4.234-1.211,4.234h-1.319Z"/>
    <path d="M492.353,261.289c1.727,0,3.022,1.343,3.022,3.105,0,1.775-1.308,3.119-3.022,3.119s-3.022-1.355-3.022-3.119,1.308-3.105,3.022-3.105Zm1.679,3.118c0-1.14-.707-1.955-1.679-1.955-.983,0-1.68,.815-1.68,1.955,0,1.127,.696,1.931,1.68,1.931s1.679-.815,1.679-1.931Z"/>
    <path d="M496.781,261.385h1.355v1.308c.324-.924,.899-1.416,1.655-1.416,.228,.013,.384,.036,.588,.12v1.188c-.216-.096-.492-.144-.744-.144-.647,0-1.199,.371-1.499,.995v3.958h-1.355v-6.009Z"/>
    <path d="M501.497,258.818l1.355-.229v5.361l2.495-2.566h1.547l-2.746,2.782,2.914,3.227h-1.739l-2.471-2.771v2.771h-1.355v-8.575Z"/>
  </g>
  <g>
    <path d="M461.082,347.019h3.754c1.703,0,2.807,1.067,2.807,2.614,0,1.499-1.104,2.579-2.807,2.579h-2.314v3.202h-1.439v-8.396Zm1.439,1.211v2.807h2.087c1.019,0,1.583-.563,1.583-1.415,0-.827-.564-1.392-1.571-1.392h-2.099Z"/>
    <path d="M469.062,346.839l1.355-.229v3.778c.456-.708,1.104-1.079,1.907-1.079,1.224,0,2.075,.887,2.075,2.146v3.958h-1.355v-3.574c0-.876-.516-1.439-1.319-1.439-.54,0-.983,.252-1.308,.72v4.294h-1.355v-8.575Z"/>
    <path d="M477.461,355.45l-2.267-6.045h1.511l1.523,4.461,1.679-4.461h1.476l-2.854,6.992c-.456,1.151-1.02,1.583-2.135,1.583-.204,0-.444-.024-.684-.084v-1.163c.323,.036,.407,.048,.527,.048,.479,0,.78-.216,.972-.695l.252-.636Z"/>
    <path d="M482.466,353.807c.779,.492,1.319,.684,1.931,.684,.72,0,1.211-.323,1.211-.804,0-.371-.252-.575-.827-.684l-1.067-.18c-1.163-.216-1.739-.756-1.739-1.655,0-1.127,.924-1.858,2.327-1.858,.839,0,1.595,.228,2.362,.719l-.636,.888c-.623-.396-1.199-.575-1.811-.575-.624,0-1.031,.264-1.031,.707,0,.384,.216,.552,.852,.66l1.055,.191c1.199,.229,1.775,.78,1.775,1.68,0,1.104-1.056,1.955-2.446,1.955-1.044,0-1.955-.288-2.591-.816l.636-.911Z"/>
    <path d="M487.949,347.354c0-.456,.384-.84,.84-.84,.468,0,.852,.384,.852,.84,0,.468-.372,.827-.852,.827-.468,0-.84-.359-.84-.827Zm1.523,8.06h-1.355v-6.009h1.355v6.009Z"/>
    <path d="M495.436,353.675l.815,.815c-.563,.647-1.428,1.044-2.351,1.044-1.703,0-3.035-1.367-3.035-3.119,0-1.738,1.319-3.094,3.035-3.094,.936,0,1.799,.359,2.398,1.008l-.84,.875c-.42-.468-.936-.708-1.511-.708-.972,0-1.728,.84-1.728,1.919,0,1.092,.756,1.919,1.764,1.919,.575,0,1.091-.228,1.451-.659Z"/>
    <path d="M497.117,353.687c0-1.079,.876-1.763,2.291-1.763,.563,0,1.079,.12,1.619,.372v-.66c0-.791-.456-1.199-1.379-1.199-.504,0-1.056,.144-1.751,.468l-.48-.983c.9-.42,1.691-.611,2.495-.611,1.559,0,2.459,.791,2.459,2.183v3.922h-1.344v-.612c-.54,.492-1.104,.708-1.787,.708-1.259,0-2.123-.743-2.123-1.823Zm2.495,.876c.54,0,1.008-.156,1.415-.492v-.983c-.432-.204-.863-.288-1.392-.288-.768,0-1.247,.336-1.247,.864,0,.552,.479,.899,1.224,.899Z"/>
    <path d="M505.372,355.414h-1.355v-8.575l1.355-.229v8.804Z"/>
  </g>
  <g>
    <path d="M243.391,312.479v7.328h-.864v-8.396h1.283l2.807,5.973,2.806-5.973h1.284v8.396h-.875v-7.304l-3.214,6.704-3.226-6.729Z"/>
    <path d="M255.222,311.411h1.104l3.274,8.396h-.996l-.995-2.639h-3.742l-.995,2.639h-.972l3.322-8.396Zm2.111,5.025l-1.595-4.197-1.583,4.197h3.178Z"/>
    <path d="M266.823,317.948l.6,.611c-.815,.888-1.931,1.379-3.142,1.379-2.411,0-4.27-1.919-4.27-4.329,0-2.423,1.871-4.33,4.27-4.33,1.235,0,2.375,.492,3.166,1.38l-.611,.636c-.624-.744-1.583-1.176-2.555-1.176-1.895,0-3.334,1.523-3.334,3.49s1.439,3.49,3.358,3.49c.971,0,1.907-.42,2.519-1.151Z"/>
    <path d="M269.886,318.919l-.972,2.771h-.684l.72-2.771h.936Z"/>
    <path d="M274.411,311.411h3.466c1.631,0,2.674,.983,2.674,2.483,0,1.486-1.043,2.482-2.674,2.482h-2.543v3.43h-.923v-8.396Zm.923,.815v3.358h2.435c1.163,0,1.859-.647,1.859-1.69,0-1.032-.696-1.668-1.859-1.668h-2.435Z"/>
    <path d="M282.258,311.411h3.466c1.631,0,2.674,.983,2.674,2.483,0,1.486-1.043,2.482-2.674,2.482h-2.543v3.43h-.923v-8.396Zm.923,.815v3.358h2.435c1.163,0,1.859-.647,1.859-1.69,0-1.032-.696-1.668-1.859-1.668h-2.435Z"/>
    <path d="M290.106,311.411h3.466c1.631,0,2.674,.983,2.674,2.483,0,1.486-1.043,2.482-2.674,2.482h-2.543v3.43h-.923v-8.396Zm.923,.815v3.358h2.435c1.163,0,1.859-.647,1.859-1.69,0-1.032-.696-1.668-1.859-1.668h-2.435Z"/>
    <path d="M297.402,318.919l-.972,2.771h-.684l.72-2.771h.936Z"/>
    <path d="M302.885,311.411l4.918,6.956-.024-6.956h.876v8.396h-.84l-5.037-7.112,.023,7.112h-.875v-8.396h.959Z"/>
    <path d="M310.794,311.411h2.782c2.471,0,4.197,1.812,4.197,4.198s-1.715,4.197-4.197,4.197h-2.782v-8.396Zm.923,.828v6.74h1.919c1.812,0,3.203-1.451,3.203-3.37s-1.392-3.37-3.203-3.37h-1.919Z"/>
    <path d="M319.529,311.411h3.467c1.631,0,2.674,.983,2.674,2.483,0,1.486-1.043,2.482-2.674,2.482h-2.543v3.43h-.924v-8.396Zm.924,.815v3.358h2.435c1.163,0,1.859-.647,1.859-1.69,0-1.032-.696-1.668-1.859-1.668h-2.435Z"/>
    <path d="M326.825,318.919l-.972,2.771h-.684l.72-2.771h.936Z"/>
    <path d="M333.712,311.411h1.104l3.274,8.396h-.995l-.996-2.639h-3.742l-.995,2.639h-.972l3.322-8.396Zm2.111,5.025l-1.596-4.197-1.583,4.197h3.179Z"/>
    <path d="M339.27,311.411h3.442c1.606,0,2.674,.972,2.674,2.423,0,1.115-.672,1.955-1.751,2.267l1.787,3.706h-1.02l-1.703-3.586h-2.507v3.586h-.923v-8.396Zm.923,.815v3.227h2.447c1.104,0,1.823-.636,1.823-1.607,0-.983-.72-1.619-1.823-1.619h-2.447Z"/>
    <path d="M347.033,311.411h3.466c1.631,0,2.675,.983,2.675,2.483,0,1.486-1.044,2.482-2.675,2.482h-2.543v3.43h-.923v-8.396Zm.923,.815v3.358h2.436c1.163,0,1.858-.647,1.858-1.69,0-1.032-.695-1.668-1.858-1.668h-2.436Z"/>
    <path d="M256.819,325.812h5.733v.804h-4.81v2.95h3.334v.804h-3.334v3.034h4.857v.804h-5.781v-8.396Z"/>
    <path d="M264.595,329.073h-1.211v-.72h1.211v-1.606l.875-.204v1.811h1.679v.72h-1.679v3.586c0,.624,.24,.876,.852,.876,.3,0,.503-.036,.828-.156v.78c-.324,.107-.684,.155-1.02,.155-1.007,0-1.535-.491-1.535-1.427v-3.814Z"/>
    <path d="M268.435,325.632l.875-.181v3.851c.444-.696,1.08-1.044,1.859-1.044,1.259,0,2.123,.876,2.123,2.159v3.79h-.875v-3.538c0-1.031-.612-1.68-1.571-1.68-.647,0-1.187,.312-1.535,.899v4.318h-.875v-8.575Z"/>
    <path d="M277.698,334.314c-1.643,0-2.902-1.319-2.902-3.034s1.199-3.022,2.758-3.022c1.535,0,2.687,1.271,2.687,2.95v.265h-4.593c.084,1.187,.971,2.074,2.087,2.074,.611,0,1.211-.228,1.607-.6l.552,.588c-.672,.527-1.379,.779-2.195,.779Zm-2.027-3.466h3.706c-.132-1.056-.875-1.835-1.835-1.835-.972,0-1.715,.756-1.871,1.835Z"/>
    <path d="M281.743,328.354h.875v1.188c.3-.815,.888-1.295,1.631-1.295,.204,0,.372,.024,.552,.084v.791c-.192-.06-.42-.107-.612-.107-.72,0-1.271,.432-1.571,1.188v4.006h-.875v-5.854Z"/>
    <path d="M285.967,328.354h.875v.948c.444-.696,1.08-1.044,1.859-1.044,1.26,0,2.123,.876,2.123,2.159v3.79h-.875v-3.538c0-1.031-.612-1.68-1.571-1.68-.647,0-1.187,.312-1.535,.899v4.318h-.875v-5.854Z"/>
    <path d="M295.229,334.314c-1.643,0-2.902-1.319-2.902-3.034s1.199-3.022,2.758-3.022c1.535,0,2.687,1.271,2.687,2.95v.265h-4.593c.084,1.187,.971,2.074,2.087,2.074,.611,0,1.211-.228,1.607-.6l.552,.588c-.672,.527-1.379,.779-2.195,.779Zm-2.027-3.466h3.706c-.132-1.056-.875-1.835-1.835-1.835-.972,0-1.715,.756-1.871,1.835Z"/>
    <path d="M299.79,329.073h-1.211v-.72h1.211v-1.606l.876-.204v1.811h1.679v.72h-1.679v3.586c0,.624,.239,.876,.852,.876,.3,0,.503-.036,.827-.156v.78c-.324,.107-.684,.155-1.02,.155-1.007,0-1.535-.491-1.535-1.427v-3.814Z"/>
    <path d="M304.71,333.319l-.972,2.771h-.684l.72-2.771h.936Z"/>
    <path d="M310.481,334.207l-1.812-8.396h.936l1.427,6.944,2.075-6.944h.899l2.075,6.92,1.439-6.92h.899l-1.812,8.396h-.936l-2.122-7.124-2.136,7.124h-.935Z"/>
    <path d="M319.638,326.279c0-.336,.288-.624,.636-.624,.336,0,.624,.288,.624,.624,0,.359-.276,.636-.624,.636-.359,0-.636-.276-.636-.636Zm1.067,7.928h-.875v-5.854h.875v5.854Z"/>
    <path d="M326.332,330.453v.755h-3.994v-.755h3.994Z"/>
    <path d="M328.134,325.812h5.732v.804h-4.81v3.01h3.287v.804h-3.287v3.778h-.923v-8.396Z"/>
    <path d="M334.913,326.279c0-.336,.288-.624,.636-.624,.336,0,.624,.288,.624,.624,0,.359-.276,.636-.624,.636-.359,0-.636-.276-.636-.636Zm1.067,7.928h-.875v-5.854h.875v5.854Z"/>
    <path d="M338.86,333.319l-.972,2.771h-.684l.72-2.771h.936Z"/>
    <path d="M252.607,340.211h2.783c2.47,0,4.197,1.812,4.197,4.198s-1.715,4.197-4.197,4.197h-2.783v-8.396Zm.923,.828v6.74h1.919c1.811,0,3.203-1.451,3.203-3.37s-1.392-3.37-3.203-3.37h-1.919Z"/>
    <path d="M265.133,348.738c-2.327,0-4.174-1.906-4.174-4.329s1.847-4.33,4.174-4.33c2.339,0,4.174,1.907,4.174,4.33s-1.835,4.329-4.174,4.329Zm0-7.819c-1.823,0-3.238,1.523-3.238,3.49s1.415,3.49,3.238,3.49c1.835,0,3.238-1.523,3.238-3.49s-1.403-3.49-3.238-3.49Z"/>
    <path d="M277.479,346.748l.6,.611c-.815,.888-1.931,1.379-3.142,1.379-2.411,0-4.27-1.919-4.27-4.329,0-2.423,1.871-4.33,4.27-4.33,1.235,0,2.375,.492,3.166,1.38l-.611,.636c-.624-.744-1.583-1.176-2.555-1.176-1.895,0-3.334,1.523-3.334,3.49s1.439,3.49,3.358,3.49c.971,0,1.907-.42,2.519-1.151Z"/>
    <path d="M279.727,346.628c1.007,.947,1.811,1.307,2.902,1.307,1.295,0,2.243-.719,2.243-1.69,0-.84-.504-1.235-1.871-1.476l-1.355-.228c-1.535-.276-2.219-.911-2.219-2.039,0-1.415,1.175-2.398,2.878-2.398,1.248,0,2.279,.336,3.322,1.067l-.48,.72c-.863-.647-1.847-1.008-2.83-1.008-1.175,0-2.003,.647-2.003,1.523,0,.743,.456,1.127,1.583,1.307l1.343,.229c1.787,.323,2.555,.995,2.555,2.255,0,1.451-1.343,2.53-3.19,2.53-1.319,0-2.411-.468-3.442-1.427l.563-.672Z"/>
    <path d="M287.347,340.211h.923v8.396h-.923v-8.396Z"/>
    <path d="M290.227,346.628c1.007,.947,1.811,1.307,2.902,1.307,1.295,0,2.243-.719,2.243-1.69,0-.84-.504-1.235-1.871-1.476l-1.355-.228c-1.535-.276-2.219-.911-2.219-2.039,0-1.415,1.175-2.398,2.878-2.398,1.248,0,2.279,.336,3.322,1.067l-.48,.72c-.863-.647-1.847-1.008-2.83-1.008-1.175,0-2.003,.647-2.003,1.523,0,.743,.456,1.127,1.583,1.307l1.343,.229c1.787,.323,2.555,.995,2.555,2.255,0,1.451-1.343,2.53-3.19,2.53-1.319,0-2.411-.468-3.442-1.427l.563-.672Z"/>
    <path d="M298.686,347.719l-.972,2.771h-.684l.72-2.771h.936Z"/>
    <path d="M302.479,340.211h6.716v.815h-2.891v7.58h-.923v-7.58h-2.902v-.815Z"/>
    <path d="M310.829,346.28c0,1.043,.6,1.69,1.56,1.69,.647,0,1.188-.312,1.535-.887v-4.33h.875v5.853h-.875v-.947c-.444,.695-1.067,1.043-1.859,1.043-1.259,0-2.122-.887-2.122-2.17v-3.778h.887v3.526Z"/>
    <path d="M316.602,342.754h.876v.947c.443-.695,1.079-1.043,1.858-1.043,1.26,0,2.123,.875,2.123,2.158v3.79h-.875v-3.538c0-1.031-.612-1.679-1.571-1.679-.647,0-1.188,.312-1.535,.899v4.317h-.876v-5.853Z"/>
    <path d="M323.226,342.754h.876v.947c.443-.695,1.079-1.043,1.858-1.043,1.26,0,2.123,.875,2.123,2.158v3.79h-.875v-3.538c0-1.031-.612-1.679-1.571-1.679-.647,0-1.188,.312-1.535,.899v4.317h-.876v-5.853Z"/>
    <path d="M332.488,348.715c-1.644,0-2.902-1.319-2.902-3.034s1.199-3.022,2.758-3.022c1.535,0,2.687,1.271,2.687,2.95v.264h-4.593c.084,1.188,.971,2.075,2.087,2.075,.611,0,1.211-.229,1.606-.6l.552,.587c-.672,.528-1.379,.78-2.194,.78Zm-2.027-3.467h3.706c-.132-1.055-.875-1.835-1.835-1.835-.972,0-1.715,.756-1.871,1.835Z"/>
    <path d="M337.409,348.606h-.876v-8.575l.876-.18v8.755Z"/>
    <path d="M339.113,347.275c.695,.516,1.26,.731,1.883,.731,.852,0,1.476-.443,1.476-1.056,0-.479-.312-.731-1.056-.875l-.959-.168c-1.14-.204-1.655-.684-1.655-1.535,0-1.008,.875-1.715,2.11-1.715,.804,0,1.487,.228,2.231,.731l-.433,.611c-.611-.432-1.211-.623-1.835-.623-.768,0-1.271,.359-1.271,.936,0,.479,.252,.707,1.007,.839l.983,.18c1.176,.217,1.703,.708,1.703,1.571,0,1.02-.983,1.812-2.278,1.812-.96,0-1.799-.3-2.375-.863l.468-.576Z"/>
  </g>
  <g>
    <path d="M246.818,101.53h.923v3.754h4.821v-3.754h.923v8.396h-.923v-3.814h-4.821v3.814h-.923v-8.396Z"/>
    <path d="M254.87,101.53h6.716v.815h-2.891v7.58h-.923v-7.58h-2.902v-.815Z"/>
    <path d="M262.394,101.53h6.716v.815h-2.891v7.58h-.923v-7.58h-2.902v-.815Z"/>
    <path d="M270.529,101.53h3.466c1.631,0,2.674,.983,2.674,2.483,0,1.487-1.043,2.482-2.674,2.482h-2.543v3.43h-.923v-8.396Zm.923,.815v3.358h2.435c1.163,0,1.859-.647,1.859-1.691,0-1.032-.696-1.667-1.859-1.667h-2.435Z"/>
    <path d="M277.825,109.038l-.972,2.771h-.684l.72-2.771h.936Z"/>
    <path d="M282.336,101.53h.924v3.754h4.821v-3.754h.923v8.396h-.923v-3.814h-4.821v3.814h-.924v-8.396Z"/>
    <path d="M290.389,101.53h6.716v.815h-2.891v7.58h-.923v-7.58h-2.902v-.815Z"/>
    <path d="M297.913,101.53h6.716v.815h-2.891v7.58h-.923v-7.58h-2.902v-.815Z"/>
    <path d="M306.048,101.53h3.467c1.631,0,2.674,.983,2.674,2.483,0,1.487-1.043,2.482-2.674,2.482h-2.543v3.43h-.924v-8.396Zm.924,.815v3.358h2.435c1.163,0,1.859-.647,1.859-1.691,0-1.032-.696-1.667-1.859-1.667h-2.435Z"/>
    <path d="M313.848,107.947c1.008,.948,1.812,1.307,2.902,1.307,1.296,0,2.243-.719,2.243-1.691,0-.839-.504-1.235-1.871-1.475l-1.355-.228c-1.535-.276-2.219-.911-2.219-2.039,0-1.416,1.176-2.399,2.879-2.399,1.247,0,2.278,.336,3.322,1.067l-.48,.72c-.863-.647-1.847-1.007-2.83-1.007-1.175,0-2.003,.647-2.003,1.523,0,.744,.456,1.127,1.583,1.307l1.344,.228c1.787,.324,2.555,.996,2.555,2.255,0,1.451-1.344,2.531-3.19,2.531-1.319,0-2.411-.468-3.442-1.427l.563-.672Z"/>
    <path d="M322.308,109.038l-.972,2.771h-.684l.72-2.771h.936Z"/>
    <path d="M326.831,101.53h5.733v.804h-4.81v3.01h3.286v.804h-3.286v3.778h-.924v-8.396Z"/>
    <path d="M333.42,101.53h6.716v.815h-2.891v7.58h-.923v-7.58h-2.902v-.815Z"/>
    <path d="M341.555,101.53h3.467c1.631,0,2.674,.983,2.674,2.483,0,1.487-1.043,2.482-2.674,2.482h-2.543v3.43h-.924v-8.396Zm.924,.815v3.358h2.435c1.163,0,1.859-.647,1.859-1.691,0-1.032-.696-1.667-1.859-1.667h-2.435Z"/>
    <path d="M348.851,109.038l-.972,2.771h-.684l.72-2.771h.936Z"/>
    <path d="M248.312,115.93h6.716v.816h-2.891v7.58h-.923v-7.58h-2.902v-.816Z"/>
    <path d="M257.694,124.434c-1.643,0-2.902-1.319-2.902-3.034s1.199-3.022,2.758-3.022c1.535,0,2.687,1.271,2.687,2.95v.264h-4.593c.084,1.187,.971,2.075,2.087,2.075,.611,0,1.211-.228,1.607-.6l.552,.588c-.672,.527-1.379,.779-2.195,.779Zm-2.027-3.466h3.706c-.132-1.056-.875-1.835-1.835-1.835-.972,0-1.715,.756-1.871,1.835Z"/>
    <path d="M262.615,124.326h-.875v-8.575l.875-.18v8.755Z"/>
    <path d="M264.416,118.473h.875v.948c.444-.696,1.08-1.043,1.859-1.043,1.26,0,2.123,.875,2.123,2.159v3.79h-.875v-3.538c0-1.031-.612-1.679-1.571-1.679-.647,0-1.187,.312-1.535,.899v4.318h-.875v-5.853Z"/>
    <path d="M273.678,124.434c-1.643,0-2.902-1.319-2.902-3.034s1.199-3.022,2.758-3.022c1.535,0,2.687,1.271,2.687,2.95v.264h-4.593c.084,1.187,.971,2.075,2.087,2.075,.611,0,1.211-.228,1.607-.6l.552,.588c-.672,.527-1.379,.779-2.195,.779Zm-2.027-3.466h3.706c-.132-1.056-.875-1.835-1.835-1.835-.972,0-1.715,.756-1.871,1.835Z"/>
    <path d="M278.239,119.192h-1.211v-.72h1.211v-1.607l.875-.204v1.811h1.679v.72h-1.679v3.586c0,.624,.24,.876,.852,.876,.3,0,.503-.036,.828-.156v.78c-.324,.108-.684,.156-1.02,.156-1.007,0-1.535-.492-1.535-1.427v-3.814Z"/>
    <path d="M283.159,123.438l-.972,2.771h-.684l.72-2.771h.936Z"/>
    <path d="M288.642,115.93l4.917,6.957-.024-6.957h.875v8.396h-.84l-5.037-7.112,.024,7.112h-.875v-8.396h.959Z"/>
    <path d="M295.819,115.93h6.716v.816h-2.891v7.58h-.923v-7.58h-2.902v-.816Z"/>
    <path d="M303.954,115.93h3.467c1.631,0,2.674,.983,2.674,2.483,0,1.487-1.043,2.482-2.674,2.482h-2.543v3.43h-.924v-8.396Zm.924,.816v3.358h2.435c1.163,0,1.859-.647,1.859-1.691,0-1.032-.696-1.667-1.859-1.667h-2.435Z"/>
    <path d="M311.25,123.438l-.972,2.771h-.684l.72-2.771h.936Z"/>
    <path d="M315.773,115.93h.924v7.58h4.737v.815h-5.661v-8.396Z"/>
    <path d="M323.058,115.93h2.783c2.47,0,4.197,1.811,4.197,4.198s-1.715,4.198-4.197,4.198h-2.783v-8.396Zm.924,.828v6.74h1.919c1.811,0,3.202-1.451,3.202-3.37s-1.392-3.37-3.202-3.37h-1.919Z"/>
    <path d="M333.784,115.93h1.104l3.274,8.396h-.996l-.995-2.639h-3.742l-.995,2.639h-.972l3.322-8.396Zm2.111,5.025l-1.596-4.198-1.583,4.198h3.179Z"/>
    <path d="M339.342,115.93h3.466c1.631,0,2.675,.983,2.675,2.483,0,1.487-1.044,2.482-2.675,2.482h-2.543v3.43h-.923v-8.396Zm.923,.816v3.358h2.436c1.163,0,1.858-.647,1.858-1.691,0-1.032-.695-1.667-1.858-1.667h-2.436Z"/>
    <path d="M346.638,123.438l-.972,2.771h-.684l.72-2.771h.936Z"/>
    <path d="M243.41,130.33h2.783c2.47,0,4.197,1.811,4.197,4.198s-1.715,4.198-4.197,4.198h-2.783v-8.396Zm.923,.828v6.74h1.919c1.811,0,3.203-1.451,3.203-3.37s-1.392-3.37-3.203-3.37h-1.919Z"/>
    <path d="M253.105,130.33l4.917,6.956-.024-6.956h.875v8.396h-.84l-5.037-7.112,.024,7.112h-.875v-8.396h.959Z"/>
    <path d="M260.846,136.747c1.007,.948,1.811,1.307,2.902,1.307,1.295,0,2.243-.719,2.243-1.691,0-.839-.503-1.235-1.871-1.475l-1.355-.228c-1.535-.276-2.219-.911-2.219-2.039,0-1.416,1.175-2.399,2.878-2.399,1.248,0,2.279,.336,3.322,1.067l-.48,.72c-.863-.647-1.847-1.007-2.83-1.007-1.175,0-2.003,.647-2.003,1.523,0,.744,.456,1.127,1.583,1.307l1.343,.228c1.787,.324,2.555,.996,2.555,2.255,0,1.451-1.343,2.531-3.19,2.531-1.319,0-2.411-.468-3.442-1.427l.563-.672Z"/>
    <path d="M269.305,137.838l-.972,2.771h-.684l.72-2.771h.936Z"/>
    <path d="M273.829,130.33h2.783c2.47,0,4.197,1.811,4.197,4.198s-1.715,4.198-4.197,4.198h-2.783v-8.396Zm.923,.828v6.74h1.919c1.811,0,3.203-1.451,3.203-3.37s-1.392-3.37-3.203-3.37h-1.919Z"/>
    <path d="M282.553,130.33h.923v3.754h4.821v-3.754h.923v8.396h-.923v-3.814h-4.821v3.814h-.923v-8.396Z"/>
    <path d="M297.753,136.867l.6,.612c-.815,.887-1.931,1.379-3.142,1.379-2.411,0-4.27-1.919-4.27-4.33s1.871-4.33,4.27-4.33c1.235,0,2.375,.492,3.166,1.379l-.611,.636c-.624-.744-1.583-1.176-2.555-1.176-1.895,0-3.334,1.523-3.334,3.49s1.439,3.49,3.358,3.49c.971,0,1.907-.42,2.519-1.151Z"/>
    <path d="M300.049,130.33h3.466c1.631,0,2.675,.983,2.675,2.483,0,1.487-1.044,2.482-2.675,2.482h-2.543v3.43h-.923v-8.396Zm.923,.815v3.358h2.436c1.163,0,1.858-.647,1.858-1.691,0-1.032-.695-1.667-1.858-1.667h-2.436Z"/>
    <path d="M307.345,137.838l-.972,2.771h-.684l.72-2.771h.936Z"/>
    <path d="M311.868,130.33h3.442c1.607,0,2.675,.972,2.675,2.423,0,1.115-.672,1.955-1.751,2.267l1.787,3.706h-1.02l-1.703-3.586h-2.507v3.586h-.924v-8.396Zm.924,.815v3.227h2.446c1.104,0,1.823-.636,1.823-1.607,0-.983-.72-1.619-1.823-1.619h-2.446Z"/>
    <path d="M319.608,130.33h.923v8.396h-.923v-8.396Z"/>
    <path d="M322.656,130.33h3.466c1.631,0,2.675,.983,2.675,2.483,0,1.487-1.044,2.482-2.675,2.482h-2.543v3.43h-.923v-8.396Zm.923,.815v3.358h2.436c1.163,0,1.858-.647,1.858-1.691,0-1.032-.695-1.667-1.858-1.667h-2.436Z"/>
    <path d="M329.952,137.838l-.972,2.771h-.684l.72-2.771h.936Z"/>
    <path d="M334.308,136.747c1.008,.948,1.812,1.307,2.902,1.307,1.296,0,2.243-.719,2.243-1.691,0-.839-.504-1.235-1.871-1.475l-1.355-.228c-1.535-.276-2.219-.911-2.219-2.039,0-1.416,1.176-2.399,2.879-2.399,1.247,0,2.278,.336,3.322,1.067l-.48,.72c-.863-.647-1.847-1.007-2.83-1.007-1.175,0-2.003,.647-2.003,1.523,0,.744,.456,1.127,1.583,1.307l1.344,.228c1.787,.324,2.555,.996,2.555,2.255,0,1.451-1.344,2.531-3.19,2.531-1.319,0-2.411-.468-3.442-1.427l.563-.672Z"/>
    <path d="M341.928,130.33h.923v8.396h-.923v-8.396Z"/>
    <path d="M344.976,130.33h3.467c1.631,0,2.674,.983,2.674,2.483,0,1.487-1.043,2.482-2.674,2.482h-2.543v3.43h-.924v-8.396Zm.924,.815v3.358h2.435c1.163,0,1.859-.647,1.859-1.691,0-1.032-.696-1.667-1.859-1.667h-2.435Z"/>
    <path d="M352.271,137.838l-.972,2.771h-.684l.72-2.771h.936Z"/>
    <path d="M240.392,151.147c1.007,.948,1.811,1.307,2.902,1.307,1.295,0,2.243-.719,2.243-1.691,0-.839-.504-1.235-1.871-1.475l-1.355-.228c-1.535-.276-2.219-.911-2.219-2.039,0-1.416,1.175-2.399,2.878-2.399,1.248,0,2.279,.336,3.322,1.067l-.48,.72c-.863-.647-1.847-1.007-2.83-1.007-1.175,0-2.003,.647-2.003,1.523,0,.744,.456,1.127,1.583,1.307l1.343,.228c1.787,.324,2.555,.996,2.555,2.255,0,1.451-1.343,2.531-3.19,2.531-1.319,0-2.411-.468-3.442-1.427l.563-.672Z"/>
    <path d="M248.899,145.798v7.328h-.864v-8.396h1.283l2.807,5.973,2.807-5.973h1.283v8.396h-.875v-7.304l-3.214,6.705-3.226-6.729Z"/>
    <path d="M257.636,144.73h6.716v.815h-2.891v7.58h-.923v-7.58h-2.902v-.815Z"/>
    <path d="M265.771,144.73h3.466c1.631,0,2.674,.983,2.674,2.483,0,1.487-1.043,2.482-2.674,2.482h-2.543v3.43h-.923v-8.396Zm.923,.815v3.358h2.435c1.163,0,1.859-.647,1.859-1.691,0-1.032-.696-1.667-1.859-1.667h-2.435Z"/>
    <path d="M273.067,152.238l-.972,2.771h-.684l.72-2.771h.936Z"/>
    <path d="M277.423,151.147c1.007,.948,1.811,1.307,2.902,1.307,1.295,0,2.243-.719,2.243-1.691,0-.839-.504-1.235-1.871-1.475l-1.355-.228c-1.535-.276-2.219-.911-2.219-2.039,0-1.416,1.175-2.399,2.878-2.399,1.248,0,2.279,.336,3.322,1.067l-.48,.72c-.863-.647-1.847-1.007-2.83-1.007-1.175,0-2.003,.647-2.003,1.523,0,.744,.456,1.127,1.583,1.307l1.343,.228c1.787,.324,2.555,.996,2.555,2.255,0,1.451-1.343,2.531-3.19,2.531-1.319,0-2.411-.468-3.442-1.427l.563-.672Z"/>
    <path d="M285.019,151.147c1.007,.948,1.811,1.307,2.902,1.307,1.295,0,2.243-.719,2.243-1.691,0-.839-.504-1.235-1.871-1.475l-1.355-.228c-1.535-.276-2.219-.911-2.219-2.039,0-1.416,1.175-2.399,2.878-2.399,1.248,0,2.279,.336,3.322,1.067l-.48,.72c-.863-.647-1.847-1.007-2.83-1.007-1.175,0-2.003,.647-2.003,1.523,0,.744,.456,1.127,1.583,1.307l1.343,.228c1.787,.324,2.555,.996,2.555,2.255,0,1.451-1.343,2.531-3.19,2.531-1.319,0-2.411-.468-3.442-1.427l.563-.672Z"/>
    <path d="M292.651,144.73h.924v3.754h4.821v-3.754h.923v8.396h-.923v-3.814h-4.821v3.814h-.924v-8.396Z"/>
    <path d="M302.346,152.238l-.972,2.771h-.684l.72-2.771h.936Z"/>
    <path d="M306.139,144.73h6.717v.815h-2.891v7.58h-.924v-7.58h-2.902v-.815Z"/>
    <path d="M314.274,144.73h.923v7.58h4.738v.815h-5.661v-8.396Z"/>
    <path d="M321.39,151.147c1.008,.948,1.812,1.307,2.902,1.307,1.296,0,2.243-.719,2.243-1.691,0-.839-.504-1.235-1.871-1.475l-1.355-.228c-1.535-.276-2.219-.911-2.219-2.039,0-1.416,1.176-2.399,2.879-2.399,1.247,0,2.278,.336,3.322,1.067l-.48,.72c-.863-.647-1.847-1.007-2.83-1.007-1.175,0-2.003,.647-2.003,1.523,0,.744,.456,1.127,1.583,1.307l1.344,.228c1.787,.324,2.555,.996,2.555,2.255,0,1.451-1.344,2.531-3.19,2.531-1.319,0-2.411-.468-3.442-1.427l.563-.672Z"/>
    <path d="M332.176,144.73h.876l-4.798,10.854h-.863l4.785-10.854Z"/>
    <path d="M334.326,151.147c1.007,.948,1.811,1.307,2.902,1.307,1.295,0,2.242-.719,2.242-1.691,0-.839-.503-1.235-1.87-1.475l-1.355-.228c-1.535-.276-2.219-.911-2.219-2.039,0-1.416,1.175-2.399,2.878-2.399,1.248,0,2.279,.336,3.322,1.067l-.479,.72c-.863-.647-1.847-1.007-2.83-1.007-1.176,0-2.003,.647-2.003,1.523,0,.744,.455,1.127,1.583,1.307l1.343,.228c1.787,.324,2.555,.996,2.555,2.255,0,1.451-1.343,2.531-3.19,2.531-1.319,0-2.41-.468-3.441-1.427l.563-.672Z"/>
    <path d="M341.922,151.147c1.007,.948,1.811,1.307,2.902,1.307,1.295,0,2.242-.719,2.242-1.691,0-.839-.503-1.235-1.87-1.475l-1.355-.228c-1.535-.276-2.219-.911-2.219-2.039,0-1.416,1.175-2.399,2.878-2.399,1.248,0,2.279,.336,3.322,1.067l-.479,.72c-.863-.647-1.847-1.007-2.83-1.007-1.176,0-2.003,.647-2.003,1.523,0,.744,.455,1.127,1.583,1.307l1.343,.228c1.787,.324,2.555,.996,2.555,2.255,0,1.451-1.343,2.531-3.19,2.531-1.319,0-2.41-.468-3.441-1.427l.563-.672Z"/>
    <path d="M349.565,144.73h.924v7.58h4.737v.815h-5.661v-8.396Z"/>
  </g>
  <g>
    <path d="M243.596,29.504h6.344v1.727h-4.281v1.595h3.022v1.679h-3.022v1.667h4.33v1.727h-6.393v-8.396Z"/>
    <path d="M252.967,34.782l-2.279-3.07h2.243l1.14,1.655,1.151-1.655h2.159l-2.243,3.022,2.387,3.166h-2.255l-1.223-1.763-1.224,1.763h-2.146l2.291-3.118Z"/>
    <path d="M257.924,36.125c0-1.14,.888-1.799,2.411-1.799,.444,0,.888,.084,1.439,.288v-.504c0-.6-.396-.899-1.224-.899-.468,0-1.02,.132-1.739,.432l-.672-1.355c1.02-.456,1.931-.672,2.842-.672,1.715,0,2.711,.852,2.711,2.327v3.958h-1.919v-.54c-.54,.456-1.056,.635-1.715,.635-1.259,0-2.135-.768-2.135-1.871Zm2.734,.587c.408,0,.78-.108,1.116-.312v-.792c-.36-.084-.708-.132-1.068-.132-.635,0-.995,.216-.995,.612s.348,.624,.947,.624Z"/>
    <path d="M265.16,31.711h1.943v.983c.456-.708,1.079-1.08,1.835-1.08,.803,0,1.439,.444,1.739,1.151,.48-.744,1.175-1.151,2.027-1.151,1.14,0,1.943,.899,1.943,2.171v4.114h-1.943v-3.73c0-.624-.372-1.031-.923-1.031-.36,0-.647,.144-.899,.479v4.282h-1.943v-3.73c0-.624-.372-1.031-.924-1.031-.36,0-.66,.156-.911,.479v4.282h-1.943v-6.188Z"/>
    <path d="M276.115,31.711h1.919v.863c.408-.552,1.092-.899,1.835-.899,1.523,0,2.734,1.403,2.734,3.142s-1.271,3.119-2.878,3.119c-.672,0-1.259-.252-1.667-.72v3.262h-1.943v-8.767Zm1.943,2.075v2.063c.3,.312,.708,.492,1.163,.492,.852,0,1.475-.648,1.475-1.535,0-.875-.636-1.523-1.475-1.523-.479,0-.852,.168-1.163,.504Z"/>
    <path d="M285.787,37.9h-1.943v-8.575l1.943-.3v8.875Z"/>
    <path d="M290.286,38.02c-1.823,0-3.262-1.403-3.262-3.203,0-1.823,1.343-3.214,3.118-3.214,1.787,0,3.046,1.355,3.046,3.286v.419h-4.258c.18,.696,.744,1.164,1.451,1.164,.516,0,.947-.18,1.223-.516l1.284,1.067c-.804,.708-1.56,.996-2.603,.996Zm-1.355-3.814h2.458c-.156-.672-.636-1.091-1.259-1.091-.612,0-1.043,.408-1.199,1.091Z"/>
    <path d="M296.983,31.711h1.919v.863c.408-.552,1.092-.899,1.835-.899,1.523,0,2.734,1.403,2.734,3.142s-1.271,3.119-2.878,3.119c-.672,0-1.26-.252-1.667-.72v3.262h-1.943v-8.767Zm1.943,2.075v2.063c.3,.312,.707,.492,1.163,.492,.852,0,1.475-.648,1.475-1.535,0-.875-.636-1.523-1.475-1.523-.479,0-.852,.168-1.163,.504Z"/>
    <path d="M304.711,31.711h1.943v1.403c.396-1.032,.947-1.523,1.679-1.523,.275,.012,.407,.036,.647,.156v1.667c-.24-.12-.575-.192-.911-.192-.576,0-1.104,.3-1.415,.768v3.91h-1.943v-6.188Z"/>
    <path d="M312.785,31.615c1.847,0,3.238,1.379,3.238,3.202s-1.403,3.203-3.238,3.203-3.227-1.392-3.227-3.203c0-1.823,1.392-3.202,3.227-3.202Zm1.344,3.202c0-.923-.564-1.583-1.344-1.583s-1.331,.66-1.331,1.583c0,.912,.552,1.56,1.331,1.56,.792,0,1.344-.648,1.344-1.56Z"/>
    <path d="M317.898,33.21h-1.199v-1.499h1.199v-1.715l1.943-.396v2.111h1.654v1.499h-1.654v2.399c0,.551,.216,.743,.815,.743,.228,0,.407-.024,.791-.132v1.571c-.359,.108-.936,.192-1.331,.192-1.463,0-2.219-.672-2.219-1.991v-2.783Z"/>
    <path d="M325.529,31.615c1.847,0,3.238,1.379,3.238,3.202s-1.403,3.203-3.238,3.203-3.227-1.392-3.227-3.203c0-1.823,1.392-3.202,3.227-3.202Zm1.343,3.202c0-.923-.563-1.583-1.343-1.583s-1.332,.66-1.332,1.583c0,.912,.552,1.56,1.332,1.56,.791,0,1.343-.648,1.343-1.56Z"/>
    <path d="M334.36,35.729l1.151,1.14c-.588,.719-1.523,1.151-2.519,1.151-1.812,0-3.203-1.392-3.203-3.203s1.392-3.202,3.203-3.202c1.019,0,1.954,.408,2.578,1.14l-1.188,1.187c-.396-.468-.791-.671-1.319-.671-.768,0-1.343,.66-1.343,1.547,0,.875,.588,1.523,1.391,1.523,.516,0,.936-.204,1.248-.612Z"/>
    <path d="M339.305,31.615c1.847,0,3.238,1.379,3.238,3.202s-1.403,3.203-3.238,3.203-3.227-1.392-3.227-3.203c0-1.823,1.392-3.202,3.227-3.202Zm1.344,3.202c0-.923-.564-1.583-1.344-1.583s-1.331,.66-1.331,1.583c0,.912,.552,1.56,1.331,1.56,.792,0,1.344-.648,1.344-1.56Z"/>
    <path d="M345.726,37.9h-1.943v-8.575l1.943-.3v8.875Z"/>
    <path d="M347.586,35.969c.888,.468,1.392,.624,1.991,.624,.552,0,.888-.192,.888-.504,0-.24-.181-.372-.576-.444l-1.188-.216c-1.199-.228-1.822-.839-1.822-1.799,0-1.271,.971-2.027,2.59-2.027,.864,0,1.715,.24,2.519,.708l-.887,1.235c-.624-.36-1.2-.528-1.775-.528-.468,0-.744,.156-.744,.432,0,.252,.156,.36,.636,.444l1.164,.216c1.223,.228,1.871,.852,1.858,1.787,.013,1.211-1.139,2.123-2.662,2.123-1.128,0-2.123-.264-2.843-.756l.852-1.295Z"/>
    <path d="M261.313,51.125c0-1.14,.888-1.799,2.411-1.799,.444,0,.888,.084,1.439,.288v-.504c0-.6-.396-.899-1.224-.899-.468,0-1.02,.132-1.739,.432l-.672-1.355c1.02-.456,1.931-.672,2.842-.672,1.715,0,2.711,.852,2.711,2.327v3.958h-1.919v-.54c-.54,.456-1.056,.635-1.715,.635-1.259,0-2.135-.768-2.135-1.871Zm2.734,.587c.408,0,.78-.108,1.116-.312v-.792c-.36-.084-.708-.132-1.068-.132-.635,0-.995,.216-.995,.612s.348,.624,.947,.624Z"/>
    <path d="M268.549,46.711h1.943v1.007c.479-.72,1.151-1.104,1.955-1.104,1.199,0,2.051,.875,2.051,2.111v4.174h-1.943v-3.61c0-.696-.408-1.151-1.031-1.151-.42,0-.755,.168-1.031,.516v4.246h-1.943v-6.188Z"/>
    <path d="M280.247,52.096c-.408,.516-1.091,.84-1.823,.84-1.523,0-2.735-1.403-2.735-3.143s1.271-3.118,2.879-3.118c.647,0,1.235,.264,1.655,.744v-3.094l1.943-.3v8.875h-1.919v-.804Zm-1.175-.768c.468,0,.852-.168,1.151-.492v-2.087c-.3-.312-.708-.479-1.151-.479-.852,0-1.475,.647-1.475,1.535,0,.875,.636,1.523,1.475,1.523Z"/>
    <path d="M286.609,50.969c.887,.468,1.391,.624,1.991,.624,.552,0,.888-.192,.888-.504,0-.24-.18-.372-.576-.444l-1.188-.216c-1.199-.228-1.823-.839-1.823-1.799,0-1.271,.971-2.027,2.59-2.027,.864,0,1.715,.24,2.519,.708l-.887,1.235c-.624-.36-1.2-.528-1.775-.528-.468,0-.744,.156-.744,.432,0,.252,.156,.36,.636,.444l1.164,.216c1.223,.228,1.871,.852,1.859,1.787,.012,1.211-1.139,2.123-2.663,2.123-1.127,0-2.123-.264-2.842-.756l.852-1.295Z"/>
    <path d="M295.439,53.02c-1.823,0-3.262-1.403-3.262-3.203,0-1.823,1.343-3.214,3.118-3.214,1.787,0,3.046,1.355,3.046,3.286v.419h-4.258c.18,.696,.744,1.164,1.451,1.164,.516,0,.947-.18,1.223-.516l1.284,1.067c-.804,.708-1.56,.996-2.603,.996Zm-1.355-3.814h2.458c-.156-.672-.636-1.091-1.259-1.091-.612,0-1.043,.408-1.199,1.091Z"/>
    <path d="M299.557,46.711h1.943v1.403c.396-1.032,.947-1.523,1.679-1.523,.275,.012,.407,.036,.647,.156v1.667c-.24-.12-.575-.192-.911-.192-.576,0-1.104,.3-1.415,.768v3.91h-1.943v-6.188Z"/>
    <path d="M304.368,46.711h2.111l1.403,3.886,1.415-3.886h2.003l-2.531,6.188h-1.895l-2.507-6.188Z"/>
    <path d="M312.024,44.672c0-.6,.491-1.091,1.091-1.091s1.104,.492,1.104,1.091-.479,1.08-1.104,1.08c-.611,0-1.091-.48-1.091-1.08Zm2.062,8.228h-1.943v-6.188h1.943v6.188Z"/>
    <path d="M319.894,50.729l1.151,1.14c-.588,.719-1.523,1.151-2.519,1.151-1.811,0-3.202-1.392-3.202-3.203s1.392-3.202,3.202-3.202c1.02,0,1.955,.408,2.579,1.14l-1.188,1.187c-.396-.468-.792-.671-1.319-.671-.768,0-1.344,.66-1.344,1.547,0,.875,.588,1.523,1.392,1.523,.516,0,.936-.204,1.247-.612Z"/>
    <path d="M324.874,53.02c-1.822,0-3.262-1.403-3.262-3.203,0-1.823,1.343-3.214,3.118-3.214,1.787,0,3.047,1.355,3.047,3.286v.419h-4.258c.18,.696,.743,1.164,1.451,1.164,.516,0,.947-.18,1.223-.516l1.284,1.067c-.804,.708-1.56,.996-2.604,.996Zm-1.354-3.814h2.458c-.155-.672-.636-1.091-1.259-1.091-.612,0-1.044,.408-1.199,1.091Z"/>
    <path d="M329.399,50.969c.888,.468,1.392,.624,1.991,.624,.552,0,.888-.192,.888-.504,0-.24-.181-.372-.576-.444l-1.188-.216c-1.199-.228-1.822-.839-1.822-1.799,0-1.271,.971-2.027,2.59-2.027,.864,0,1.715,.24,2.519,.708l-.887,1.235c-.624-.36-1.2-.528-1.775-.528-.468,0-.744,.156-.744,.432,0,.252,.156,.36,.636,.444l1.164,.216c1.223,.228,1.871,.852,1.858,1.787,.013,1.211-1.139,2.123-2.662,2.123-1.128,0-2.123-.264-2.843-.756l.852-1.295Z"/>
  </g>
  <g>
    <path d="M253.465,251.05h.923v8.396h-.923v-8.396Z"/>
    <path d="M256.513,251.05h3.466c1.631,0,2.674,.983,2.674,2.483,0,1.486-1.043,2.482-2.674,2.482h-2.543v3.43h-.923v-8.396Zm.923,.815v3.358h2.435c1.163,0,1.859-.647,1.859-1.69,0-1.032-.696-1.668-1.859-1.668h-2.435Z"/>
    <path d="M263.593,253.593h.948l1.895,4.762,1.871-4.762h.935l-2.411,5.853h-.839l-2.399-5.853Z"/>
    <path d="M275.279,256.447h1.163v.756h-1.163v2.242h-.852v-2.242h-4.534v-.684l4.461-5.47h.924v5.397Zm-.852,0v-4.354l-3.526,4.354h3.526Z"/>
    <path d="M278.677,258.558l-.972,2.771h-.684l.72-2.771h.936Z"/>
    <path d="M283.177,251.05h.923v8.396h-.923v-8.396Z"/>
    <path d="M286.225,251.05h3.466c1.631,0,2.674,.983,2.674,2.483,0,1.486-1.043,2.482-2.674,2.482h-2.543v3.43h-.923v-8.396Zm.923,.815v3.358h2.435c1.163,0,1.859-.647,1.859-1.69,0-1.032-.696-1.668-1.859-1.668h-2.435Z"/>
    <path d="M293.305,253.593h.948l1.895,4.762,1.871-4.762h.936l-2.411,5.853h-.839l-2.399-5.853Z"/>
    <path d="M299.821,255.536c0-2.759,1.499-4.582,3.766-4.582,.695,0,1.428,.204,1.967,.563l-.432,.672c-.491-.288-1.056-.456-1.607-.456-1.727,0-2.794,1.403-2.83,3.719,.624-.804,1.535-1.271,2.459-1.271,1.631,0,2.807,1.104,2.807,2.614,0,1.583-1.212,2.746-2.843,2.746-1.931,0-3.286-1.654-3.286-4.005Zm.888,.587c.18,1.607,1.103,2.663,2.387,2.663,1.139,0,1.99-.84,1.99-1.967s-.852-1.932-2.062-1.932c-.876,0-1.715,.468-2.314,1.235Z"/>
    <path d="M308.305,258.558l-.972,2.771h-.684l.72-2.771h.936Z"/>
    <path d="M312.805,251.05h.923v8.396h-.923v-8.396Z"/>
    <path d="M322.269,257.587l.6,.611c-.815,.888-1.931,1.379-3.142,1.379-2.411,0-4.27-1.919-4.27-4.329,0-2.423,1.87-4.33,4.27-4.33,1.235,0,2.374,.492,3.166,1.38l-.611,.636c-.624-.744-1.584-1.176-2.555-1.176-1.896,0-3.335,1.523-3.335,3.49s1.439,3.49,3.358,3.49c.972,0,1.907-.42,2.519-1.151Z"/>
    <path d="M325.428,252.117v7.328h-.863v-8.396h1.283l2.807,5.973,2.807-5.973h1.283v8.396h-.876v-7.304l-3.214,6.704-3.227-6.729Z"/>
    <path d="M334.896,251.05h3.466c1.631,0,2.675,.983,2.675,2.483,0,1.486-1.044,2.482-2.675,2.482h-2.543v3.43h-.923v-8.396Zm.923,.815v3.358h2.436c1.163,0,1.858-.647,1.858-1.69,0-1.032-.695-1.668-1.858-1.668h-2.436Z"/>
    <path d="M342.191,258.558l-.972,2.771h-.684l.72-2.771h.936Z"/>
    <path d="M266.719,265.45h.923v8.396h-.923v-8.396Z"/>
    <path d="M273.629,273.978c-2.387,0-4.257-1.919-4.257-4.33s1.859-4.329,4.246-4.329c1.271,0,2.47,.468,3.274,1.379l-.624,.624c-.624-.744-1.631-1.164-2.65-1.164-1.883,0-3.311,1.535-3.311,3.49,0,1.967,1.439,3.502,3.311,3.502,1.667,0,2.926-1.235,3.07-2.878h-2.831v-.815h3.766v.372c0,2.326-1.715,4.149-3.994,4.149Z"/>
    <path d="M280.219,266.518v7.328h-.864v-8.396h1.283l2.807,5.973,2.807-5.973h1.283v8.396h-.875v-7.305l-3.214,6.705-3.226-6.729Z"/>
    <path d="M289.687,265.45h3.466c1.631,0,2.674,.983,2.674,2.482,0,1.487-1.043,2.482-2.674,2.482h-2.543v3.431h-.923v-8.396Zm.923,.815v3.358h2.435c1.163,0,1.859-.647,1.859-1.691,0-1.031-.696-1.667-1.859-1.667h-2.435Z"/>
    <path d="M296.982,272.958l-.972,2.771h-.684l.72-2.771h.936Z"/>
    <path d="M301.483,265.45h.923v8.396h-.923v-8.396Z"/>
    <path d="M304.531,265.45h3.466c1.631,0,2.675,.983,2.675,2.482,0,1.487-1.044,2.482-2.675,2.482h-2.543v3.431h-.923v-8.396Zm.923,.815v3.358h2.436c1.163,0,1.858-.647,1.858-1.691,0-1.031-.695-1.667-1.858-1.667h-2.436Z"/>
    <path d="M312.115,272.515c.695,.516,1.259,.731,1.883,.731,.852,0,1.475-.444,1.475-1.056,0-.479-.312-.731-1.055-.876l-.96-.168c-1.14-.203-1.655-.684-1.655-1.535,0-1.007,.876-1.715,2.111-1.715,.804,0,1.487,.229,2.23,.731l-.432,.612c-.611-.432-1.211-.624-1.835-.624-.768,0-1.271,.36-1.271,.936,0,.479,.252,.708,1.008,.84l.983,.18c1.175,.216,1.703,.708,1.703,1.571,0,1.02-.983,1.811-2.279,1.811-.959,0-1.799-.3-2.374-.863l.468-.575Z"/>
    <path d="M320.333,273.953c-1.643,0-2.902-1.319-2.902-3.034s1.199-3.022,2.759-3.022c1.535,0,2.687,1.271,2.687,2.95v.265h-4.594c.084,1.187,.972,2.074,2.087,2.074,.611,0,1.211-.228,1.607-.6l.552,.588c-.672,.527-1.38,.779-2.195,.779Zm-2.026-3.466h3.706c-.132-1.056-.876-1.835-1.835-1.835-.972,0-1.716,.756-1.871,1.835Z"/>
    <path d="M328.696,272.466l.539,.54c-.563,.6-1.367,.947-2.219,.947-1.619,0-2.89-1.331-2.89-3.034,0-1.691,1.259-3.022,2.89-3.022,.864,0,1.68,.336,2.255,.912l-.563,.611c-.42-.456-1.043-.731-1.655-.731-1.151,0-2.051,.983-2.051,2.23,0,1.271,.899,2.243,2.063,2.243,.635,0,1.223-.24,1.631-.696Z"/>
  </g>
  <g>
    <path d="M271.7,213.21h6.716v.815h-2.891v7.58h-.923v-7.58h-2.902v-.815Z"/>
    <path d="M285.735,219.747l.6,.611c-.815,.888-1.931,1.379-3.142,1.379-2.411,0-4.27-1.919-4.27-4.329,0-2.423,1.871-4.33,4.27-4.33,1.235,0,2.375,.492,3.166,1.38l-.611,.636c-.624-.744-1.583-1.176-2.555-1.176-1.895,0-3.334,1.523-3.334,3.49s1.439,3.49,3.358,3.49c.971,0,1.907-.42,2.519-1.151Z"/>
    <path d="M288.031,213.21h3.466c1.631,0,2.674,.983,2.674,2.483,0,1.486-1.043,2.482-2.674,2.482h-2.543v3.43h-.923v-8.396Zm.923,.815v3.358h2.435c1.163,0,1.859-.647,1.859-1.69,0-1.032-.696-1.668-1.859-1.668h-2.435Z"/>
    <path d="M295.327,220.718l-.972,2.771h-.684l.72-2.771h.936Z"/>
    <path d="M303.053,221.737c-2.075,0-3.37-1.415-3.37-3.682v-4.846h.923v4.846c0,1.727,.96,2.843,2.447,2.843s2.446-1.116,2.446-2.843v-4.846h.924v4.846c0,2.255-1.308,3.682-3.37,3.682Z"/>
    <path d="M308.395,213.21h2.782c2.471,0,4.197,1.812,4.197,4.198s-1.715,4.197-4.197,4.197h-2.782v-8.396Zm.923,.828v6.74h1.919c1.812,0,3.203-1.451,3.203-3.37s-1.392-3.37-3.203-3.37h-1.919Z"/>
    <path d="M317.13,213.21h3.467c1.631,0,2.674,.983,2.674,2.483,0,1.486-1.043,2.482-2.674,2.482h-2.543v3.43h-.924v-8.396Zm.924,.815v3.358h2.435c1.163,0,1.859-.647,1.859-1.69,0-1.032-.696-1.668-1.859-1.668h-2.435Z"/>
  </g>
</svg>